<svg width="224" height="47" viewBox="0 0 224 47" fill="none" xmlns="http://www.w3.org/2000/svg">
<path d="M71.0631 33.4531C66.0016 33.4531 62.4738 30.5066 62.2559 26.7609H67.3901C67.5757 28.2866 68.9885 29.4571 71.0308 29.4571C73.0329 29.4571 74.1227 28.5449 74.1227 27.3824C74.1227 23.782 62.7321 26.0747 62.7321 18.6882C62.7321 15.338 65.719 12.6498 70.6999 12.6498C75.5757 12.6498 78.5223 15.3057 78.8129 19.3098H73.937C73.7917 17.7437 72.5566 16.6862 70.5546 16.6862C68.6656 16.6862 67.6807 17.4531 67.6807 18.6155C67.6807 22.2886 78.8532 19.996 78.9986 27.3824C78.9986 30.8375 75.9713 33.4531 71.0631 33.4531Z" fill="#056CC1"/>
<path d="M91.1807 12.6418C96.2019 12.6418 99.5843 15.2654 100.674 19.7699H95.1766C94.5954 18.0585 93.2473 16.9687 91.1403 16.9687C88.2987 16.9687 86.4097 19.116 86.4097 23.0474C86.4097 26.9788 88.2987 29.0858 91.1403 29.0858C93.2473 29.0858 94.5631 28.1413 95.1766 26.3168H100.674C99.5843 30.6115 96.2019 33.4531 91.1807 33.4531C85.3603 33.4531 81.2109 29.3764 81.2109 23.0474C81.2109 16.7184 85.3603 12.6418 91.1807 12.6418Z" fill="#056CC1"/>
<path d="M103.692 6.1998H108.786V16.9929C109.351 14.0141 112.354 12.6741 115.043 12.6741C119.587 12.6741 122.905 15.7336 122.905 21.2957V33.1221H117.811V21.9899C117.811 18.7528 116.027 17.001 113.339 17.001C110.57 17.001 108.794 18.7447 108.794 21.9899V33.1221H103.7V6.1998H103.692Z" fill="#056CC1"/>
<path d="M140.391 21.99C140.391 18.7528 138.607 17.001 135.919 17.001C133.15 17.001 131.374 18.7447 131.374 21.99V33.1222H126.28V12.9647H131.374V16.8234C132.173 14.4824 134.87 12.6741 137.453 12.6741C142.143 12.6741 145.493 15.7336 145.493 21.2957V33.1222H140.399V21.99H140.391Z" fill="#056CC1"/>
<path d="M158.628 33.4531C152.767 33.4531 148.513 29.3764 148.513 23.0474C148.513 16.6781 152.662 12.6418 158.628 12.6418C164.448 12.6418 168.565 16.6054 168.565 22.6115C168.565 23.2654 168.533 23.9193 168.42 24.5731H153.679C153.938 27.56 155.972 29.2311 158.515 29.2311C160.694 29.2311 161.897 28.1413 162.551 26.7931H168.049C166.959 30.5066 163.617 33.4531 158.628 33.4531ZM153.72 21.1584H163.286C163.213 18.5025 161.106 16.8315 158.482 16.8315C156.044 16.8234 154.115 18.3895 153.72 21.1584Z" fill="#056CC1"/>
<path d="M171.253 7.58024C171.253 5.9092 172.561 4.59335 174.385 4.59335C176.169 4.59335 177.517 5.90112 177.517 7.58024C177.517 9.25128 176.169 10.5671 174.385 10.5671C172.569 10.5671 171.253 9.25935 171.253 7.58024ZM171.802 12.9647H176.896V33.1221H171.802V12.9647Z" fill="#056CC1"/>
<path d="M189.182 12.7548C191.838 12.7548 195.027 14.3128 195.77 17.4531V6.31281H200.936V33.2432H195.77V29.0939C194.777 31.7013 192.315 33.5661 189.15 33.5661C184.016 33.5661 179.947 29.3845 179.947 23.0878C179.947 16.7911 184.016 12.7548 189.182 12.7548ZM190.458 17.227C187.729 17.227 185.146 19.2614 185.146 23.0878C185.146 26.9062 187.729 29.0939 190.458 29.0939C193.259 29.0939 195.81 26.9869 195.81 23.1604C195.81 19.334 193.259 17.227 190.458 17.227Z" fill="#056CC1"/>
<path d="M214.062 33.4531C208.202 33.4531 203.947 29.3764 203.947 23.0474C203.947 16.6781 208.097 12.6418 214.062 12.6418C219.883 12.6418 224 16.6054 224 22.6115C224 23.2654 223.959 23.9193 223.854 24.5731H209.114C209.372 27.56 211.406 29.2311 213.949 29.2311C216.129 29.2311 217.332 28.1413 217.986 26.7931H223.483C222.393 30.5066 219.043 33.4531 214.062 33.4531ZM209.146 21.1584H218.712C218.64 18.5025 216.533 16.8315 213.909 16.8315C211.479 16.8234 209.55 18.3895 209.146 21.1584Z" fill="#056CC1"/>
<path d="M64.9521 39.9193C66.1227 39.9193 67.051 40.5086 67.4546 41.55H66.6151C66.3245 40.8961 65.7513 40.5328 64.9602 40.5328C63.83 40.5328 62.9905 41.3562 62.9905 42.6802C62.9905 43.996 63.8381 44.8194 64.9602 44.8194C65.7513 44.8194 66.3245 44.4561 66.6151 43.8103H67.4546C67.051 44.8436 66.1227 45.4249 64.9521 45.4249C63.4425 45.4249 62.2559 44.2947 62.2559 42.6802C62.2559 41.0656 63.4425 39.9193 64.9521 39.9193Z" fill="#231F20"/>
<path d="M71.7815 39.992C73.0489 39.992 73.6544 40.6943 73.6544 41.5823C73.6544 42.2684 73.275 42.9304 72.3708 43.1322L73.727 45.3926H72.8794L71.5959 43.1887H70.7482V45.3926H70.0459V40H71.7815V39.992ZM71.7815 40.5732H70.7482V42.6156H71.7815C72.5807 42.6156 72.9278 42.1797 72.9278 41.5823C72.9278 40.9607 72.5888 40.5732 71.7815 40.5732Z" fill="#231F20"/>
<path d="M79.193 40.5651H76.9972V42.3653H78.967V42.9465H76.9972V44.8032H79.193V45.3845H76.2949V39.9839H79.193V40.5651Z" fill="#231F20"/>
<path d="M84.9965 44.1817H82.6474L82.2114 45.3845H81.4688L83.4223 40.0242H84.2377L86.1832 45.3845H85.4405L84.9965 44.1817ZM83.8179 40.888L82.8411 43.6085H84.7947L83.8179 40.888Z" fill="#231F20"/>
<path d="M88.2412 39.992H91.8901V40.5651H90.4208V45.3845H89.7185V40.5651H88.2412V39.992Z" fill="#231F20"/>
<path d="M94.3047 39.992H95.007V45.3845H94.3047V39.992Z" fill="#231F20"/>
<path d="M101.473 39.992H102.216L100.182 45.3845H99.3663L97.332 39.992H98.0828L99.7781 44.6418L101.473 39.992Z" fill="#231F20"/>
<path d="M107.438 40.5651H105.242V42.3653H107.204V42.9465H105.242V44.8032H107.438V45.3845H104.54V39.9839H107.438V40.5651Z" fill="#231F20"/>
<path d="M114.551 39.2331V46.2079H113.849V39.2331H114.551Z" fill="#231F20"/>
<path d="M123.979 40.5651H121.783V42.3653H123.753V42.9465H121.783V44.8032H123.979V45.3845H121.081V39.9839H123.979V40.5651Z" fill="#231F20"/>
<path d="M126.595 39.992H129.646V40.5651H127.305V42.3815H129.21V42.9546H127.305V45.3845H126.603V39.992H126.595Z" fill="#231F20"/>
<path d="M132.044 39.992H135.095V40.5651H132.754V42.3815H134.659V42.9546H132.754V45.3845H132.052V39.992H132.044Z" fill="#231F20"/>
<path d="M140.391 40.5651H138.195V42.3653H140.157V42.9465H138.195V44.8032H140.391V45.3845H137.493V39.9839H140.391V40.5651Z" fill="#231F20"/>
<path d="M145.437 39.9193C146.607 39.9193 147.535 40.5086 147.939 41.55H147.091C146.801 40.8961 146.228 40.5328 145.437 40.5328C144.306 40.5328 143.467 41.3562 143.467 42.6802C143.467 43.996 144.314 44.8194 145.437 44.8194C146.228 44.8194 146.801 44.4561 147.091 43.8103H147.939C147.535 44.8436 146.607 45.4249 145.437 45.4249C143.927 45.4249 142.74 44.2947 142.74 42.6802C142.74 41.0656 143.927 39.9193 145.437 39.9193Z" fill="#231F20"/>
<path d="M150.191 39.992H153.848V40.5651H152.379V45.3845H151.677V40.5651H150.199V39.992H150.191Z" fill="#231F20"/>
<path d="M156.262 39.992H156.964V45.3845H156.262V39.992Z" fill="#231F20"/>
<path d="M163.424 39.992H164.166L162.132 45.3845H161.317L159.282 39.992H160.033L161.728 44.6418L163.424 39.992Z" fill="#231F20"/>
<path d="M169.387 40.5651H167.192V42.3653H169.161V42.9465H167.192V44.8032H169.387V45.3845H166.489V39.9839H169.387V40.5651Z" fill="#231F20"/>
<path d="M176.501 39.2331V46.2079H175.799V39.2331H176.501Z" fill="#231F20"/>
<path d="M184.774 39.992C186.042 39.992 186.647 40.6943 186.647 41.5823C186.647 42.2684 186.268 42.9304 185.364 43.1322L186.72 45.3926H185.88L184.597 43.1887H183.749V45.3926H183.047V40H184.774V39.992ZM184.774 40.5732H183.741V42.6156H184.774C185.574 42.6156 185.921 42.1797 185.921 41.5823C185.921 40.9607 185.574 40.5732 184.774 40.5732Z" fill="#231F20"/>
<path d="M192.185 40.5651H189.989V42.3653H191.959V42.9465H189.989V44.8032H192.185V45.3845H189.287V39.9839H192.185V40.5651Z" fill="#231F20"/>
<path d="M195.503 39.992V44.8113H197.392V45.3845H194.801V39.992H195.503Z" fill="#231F20"/>
<path d="M199.693 39.992H200.396V45.3845H199.693V39.992Z" fill="#231F20"/>
<path d="M206.329 44.1817H203.979L203.543 45.3845H202.801L204.754 40.0242H205.57L207.515 45.3845H206.773L206.329 44.1817ZM205.15 40.888L204.173 43.6085H206.127L205.15 40.888Z" fill="#231F20"/>
<path d="M211.914 45.3845H209.904V39.992H211.842C212.98 39.992 213.553 40.6136 213.553 41.3643C213.553 42.0424 213.125 42.438 212.609 42.6075C213.198 42.7044 213.674 43.2695 213.674 43.9395C213.674 44.7468 213.028 45.3845 211.914 45.3845ZM211.777 40.5732H210.607V42.325H211.793C212.447 42.325 212.827 42.0021 212.827 41.4531C212.827 40.9122 212.463 40.5732 211.777 40.5732ZM211.834 42.8981H210.615V44.8033H211.858C212.552 44.8033 212.972 44.4561 212.972 43.8668C212.972 43.2695 212.52 42.8981 211.834 42.8981Z" fill="#231F20"/>
<path d="M216.896 39.992V44.8113H218.785V45.3845H216.193V39.992H216.896Z" fill="#231F20"/>
<path d="M223.984 40.5651H221.788V42.3653H223.75V42.9465H221.788V44.8032H223.984V45.3845H221.086V39.9839H223.984V40.5651Z" fill="#231F20"/>
<path d="M46.4183 0H25.7361C24.7028 0 23.8633 0.839557 23.8633 1.87286V22.555C23.8633 23.5883 24.7028 24.4279 25.7361 24.4279H46.4183C47.4516 24.4279 48.2912 23.5883 48.2912 22.555V1.88093C48.2912 0.839557 47.4516 0 46.4183 0Z" fill="url(#paint0_linear)"/>
<path d="M16.7427 5.81232H1.87286C0.839557 5.81232 0 6.65187 0 7.68517V22.5631C0 23.5964 0.839557 24.4359 1.87286 24.4359H16.7427C17.776 24.4359 18.6156 23.5964 18.6156 22.5631V7.69325C18.6156 6.65187 17.776 5.81232 16.7427 5.81232Z" fill="url(#paint1_linear)"/>
<path d="M16.7429 29.6751H9.38067C8.34737 29.6751 7.50781 30.5147 7.50781 31.548V38.9102C7.50781 39.9435 8.34737 40.7831 9.38067 40.7831H16.7429C17.7762 40.7831 18.6158 39.9435 18.6158 38.9102V31.548C18.6158 30.5147 17.7762 29.6751 16.7429 29.6751Z" fill="url(#paint2_linear)"/>
<path d="M38.5071 29.6751H25.7361C24.7028 29.6751 23.8633 30.5147 23.8633 31.548V44.327C23.8633 45.3603 24.7028 46.1998 25.7361 46.1998H38.5152C39.5485 46.1998 40.388 45.3603 40.388 44.327V31.556C40.3799 30.5147 39.5404 29.6751 38.5071 29.6751Z" fill="url(#paint3_linear)"/>
<defs>
<linearGradient id="paint0_linear" x1="28.3204" y1="17.0226" x2="52.8283" y2="1.85098" gradientUnits="userSpaceOnUse">
<stop offset="4.04912e-07" stop-color="#FE5D7A"/>
<stop offset="1" stop-color="#FB0157"/>
</linearGradient>
<linearGradient id="paint1_linear" x1="1.49473" y1="7.31528" x2="14.972" y2="20.7924" gradientUnits="userSpaceOnUse">
<stop offset="6.81957e-07" stop-color="#1E7CE2"/>
<stop offset="1" stop-color="#49B3FF"/>
</linearGradient>
<linearGradient id="paint2_linear" x1="16.6591" y1="31.445" x2="7.68452" y2="40.8919" gradientUnits="userSpaceOnUse">
<stop stop-color="#FFCD4B"/>
<stop offset="0.7878" stop-color="#ED9E17"/>
</linearGradient>
<linearGradient id="paint3_linear" x1="24.5318" y1="28.6173" x2="40.958" y2="48.798" gradientUnits="userSpaceOnUse">
<stop offset="1.0922e-06" stop-color="#1EED89"/>
<stop offset="1" stop-color="#0CB75C"/>
</linearGradient>
</defs>
</svg>
