<?xml version="1.0" encoding="UTF-8"?>
<svg width="148px" height="60px" viewBox="0 0 148 60" version="1.1" xmlns="http://www.w3.org/2000/svg" xmlns:xlink="http://www.w3.org/1999/xlink">
    <title>Group 24</title>
    <defs>
        <filter x="-256.6%" y="-183.1%" width="613.2%" height="466.1%" filterUnits="objectBoundingBox" id="filter-1">
            <feGaussianBlur stdDeviation="3" in="SourceGraphic"></feGaussianBlur>
        </filter>
    </defs>
    <g id="Home" stroke="none" stroke-width="1" fill="none" fill-rule="evenodd">
        <g id="westford-1" transform="translate(-992.000000, -1282.000000)">
            <g id="Group-24" transform="translate(992.000000, 1282.000000)">
                <line x1="146.806491" y1="58.4981708" x2="1.4028436" y2="58.6488095" id="Path-2-Copy-3" stroke="#FF006E" stroke-linecap="round"></line>
                <g id="Group-Copy-4">
                    <path d="M47.0850427,36.9620952 C48.1792607,36.9620952 49.1944518,36.755127 50.1306161,36.3411905 C51.0667804,35.927254 51.7658641,35.342873 52.2278673,34.5880476 L52.2278673,34.5880476 L52.3372891,34.5880476 L52.3372891,36.5238095 L57.8083791,36.5238095 L57.8083791,27.3563333 C57.8083791,25.7005873 57.6564044,24.2700714 57.352455,23.0647857 C57.0485055,21.8595 56.5682654,20.8611825 55.9117346,20.0698333 C55.2552038,19.2784841 54.3980664,18.6941032 53.3403223,18.3166905 C52.2825782,17.9392778 50.9877536,17.7505714 49.4558483,17.7505714 C47.972575,17.7505714 46.5196967,18.0062381 45.0972133,18.5175714 C43.6747299,19.0289048 42.4285371,19.7959048 41.3586351,20.8185714 L41.3586351,20.8185714 L44.3859716,24.0691905 C44.9452385,23.5578571 45.6200063,23.1195714 46.4102749,22.7543333 C47.2005434,22.3890952 48.021207,22.2064762 48.8722654,22.2064762 C49.7962717,22.2064762 50.5743823,22.4195317 51.2065972,22.8456429 C51.838812,23.271754 52.1549194,23.9352698 52.1549194,24.8361905 L52.1549194,24.8361905 L52.1549194,25.128381 C50.8418578,25.128381 49.4923223,25.2014286 48.1063128,25.3475238 C46.7203033,25.493619 45.4619526,25.7858095 44.3312607,26.2240952 C43.2005687,26.662381 42.2765624,27.2832857 41.5592417,28.0868095 C40.841921,28.8903333 40.4832607,29.9495238 40.4832607,31.264381 C40.4832607,32.335746 40.6899463,33.2366667 41.1033175,33.9671429 C41.5166888,34.697619 42.0455608,35.282 42.6899336,35.7202857 C43.3343065,36.1585714 44.0455482,36.4751111 44.8236588,36.6699048 C45.6017694,36.8646984 46.355564,36.9620952 47.0850427,36.9620952 Z M48.5804739,32.9444762 C48.2886825,32.9444762 47.984733,32.9140397 47.6686256,32.8531667 C47.3525182,32.7922937 47.0728847,32.6888095 46.8297251,32.5427143 C46.5865656,32.396619 46.3859589,32.2018254 46.2279052,31.9583333 C46.0698515,31.7148413 45.9908246,31.4226508 45.9908246,31.0817619 C45.9908246,30.5460794 46.1610363,30.113881 46.5014597,29.7851667 C46.8418831,29.4564524 47.2734913,29.206873 47.7962844,29.0364286 C48.3190774,28.8659841 48.9148183,28.7503254 49.5835071,28.6894524 C50.2521959,28.6285794 50.9148057,28.5981429 51.5713365,28.5981429 L51.5713365,28.5981429 L52.3372891,28.5981429 L52.3372891,29.2190476 C52.3372891,30.3634603 52.0151027,31.2704683 51.3707299,31.9400714 C50.726357,32.6096746 49.7962717,32.9444762 48.5804739,32.9444762 Z M66.8314692,36.9620952 C67.463684,36.9620952 68.0958989,36.9073095 68.7281137,36.7977381 C69.3603286,36.6881667 69.8831216,36.5603333 70.2964929,36.4142381 L70.2964929,36.4142381 L70.223545,32.031381 C70.0047014,32.1287778 69.7311469,32.2018254 69.4028815,32.2505238 C69.0746161,32.2992222 68.7645877,32.3235714 68.4727962,32.3235714 C67.6217378,32.3235714 67.0320758,32.1105159 66.7038104,31.6844048 C66.375545,31.2582937 66.2114123,30.619127 66.2114123,29.7669048 L66.2114123,29.7669048 L66.2114123,22.827381 L70.4788626,22.827381 L70.4788626,18.3349524 L66.2114123,18.3349524 L66.2114123,13.5503333 L60.339109,13.5503333 L60.339109,18.3349524 L57.4576682,18.3349524 L57.4576682,22.827381 L60.3755829,22.827381 L60.3755829,30.497381 C60.3755829,31.4713492 60.4850047,32.3540079 60.7038483,33.1453571 C60.9226919,33.9367063 61.2813523,34.6184841 61.7798294,35.1906905 C62.2783065,35.7628968 62.9409163,36.2011825 63.7676588,36.5055476 C64.5944013,36.8099127 65.6156714,36.9620952 66.8314692,36.9620952 Z M77.1676209,36.5238095 L77.1676209,26.6989048 C77.1676209,25.6031905 77.4472543,24.6840079 78.0065213,23.9413571 C78.5657883,23.1987063 79.3682148,22.827381 80.4138009,22.827381 C80.948752,22.827381 81.3864392,22.9308651 81.7268626,23.1378333 C82.0672859,23.3448016 82.3408404,23.6248175 82.5475261,23.977881 C82.7542117,24.3309444 82.8940284,24.7387937 82.9669763,25.2014286 C83.0399242,25.6640635 83.0763981,26.1510476 83.0763981,26.662381 L83.0763981,26.662381 L83.0763981,36.5238095 L89.0945972,36.5238095 L89.0945972,25.2744762 C89.0945972,24.3735556 88.9790964,23.4726349 88.7480948,22.5717143 C88.5170932,21.6707937 88.1401959,20.8733571 87.6174028,20.1794048 C87.0946098,19.4854524 86.413763,18.9193333 85.5748626,18.4810476 C84.7359621,18.0427619 83.696455,17.823619 82.4563412,17.823619 C81.1919115,17.823619 80.1098515,18.1097222 79.2101611,18.6819286 C78.3104708,19.2541349 77.65394,19.9054762 77.2405687,20.6359524 L77.2405687,20.6359524 L77.1676209,20.6359524 L77.1676209,8.91180952 L71.1858957,8.91180952 L71.1858957,36.5238095 L77.1676209,36.5238095 Z M100.524967,37.1081905 C102.372979,37.1081905 103.99607,36.7733889 105.394237,36.1037857 C106.792404,35.4341825 107.917017,34.4784762 108.768076,33.2366667 L108.768076,33.2366667 L104.610047,30.6069524 C104.196676,31.1669841 103.661725,31.6235317 103.005194,31.9765952 C102.348664,32.3296587 101.546237,32.5061905 100.597915,32.5061905 C100.062964,32.5061905 99.5462496,32.4209683 99.0477725,32.2505238 C98.5492954,32.0800794 98.0994502,31.8426746 97.698237,31.5383095 C97.2970237,31.2339444 96.9687583,30.8747937 96.7134408,30.4608571 C96.4581232,30.0469206 96.3061485,29.5842857 96.2575166,29.0729524 L96.2575166,29.0729524 L109.424607,29.0729524 C109.448923,28.8538095 109.461081,28.6224921 109.461081,28.379 L109.461081,28.379 L109.461081,27.6485238 C109.461081,26.0901746 109.236158,24.7022698 108.786313,23.4848095 C108.336468,22.2673492 107.710332,21.2325079 106.907905,20.3802857 C106.105479,19.5280635 105.144998,18.8767222 104.026464,18.4262619 C102.90793,17.9758016 101.679975,17.7505714 100.342597,17.7505714 C98.9565877,17.7505714 97.667842,17.9818889 96.4763602,18.4445238 C95.2848784,18.9071587 94.2514502,19.5585 93.3760758,20.3985476 C92.5007014,21.2385952 91.8076967,22.2612619 91.2970616,23.4665476 C90.7864265,24.6718333 90.531109,26.017127 90.531109,27.5024286 C90.531109,29.0364286 90.7925055,30.3999841 91.3152986,31.5930952 C91.8380916,32.7862063 92.5554123,33.7906111 93.4672607,34.6063095 C94.379109,35.4220079 95.4429321,36.0429127 96.6587299,36.4690238 C97.8745276,36.8951349 99.1632733,37.1081905 100.524967,37.1081905 Z M103.953517,25.3475238 L96.2575166,25.3475238 C96.2818325,24.8848889 96.4034123,24.4405159 96.6222559,24.0144048 C96.8410995,23.5882937 97.132891,23.2169683 97.4976303,22.9004286 C97.8623697,22.5838889 98.2878989,22.3343095 98.774218,22.1516905 C99.2605371,21.9690714 99.7954882,21.8777619 100.379071,21.8777619 C101.570553,21.8777619 102.464164,22.2186508 103.059905,22.9004286 C103.655646,23.5822063 103.953517,24.3979048 103.953517,25.3475238 L103.953517,25.3475238 Z M117.025213,36.5238095 L117.025213,26.662381 C117.025213,26.1510476 117.092082,25.6579762 117.22582,25.1831667 C117.359558,24.7083571 117.560164,24.2883333 117.82764,23.9230952 C118.095115,23.5578571 118.42946,23.271754 118.830673,23.0647857 C119.231886,22.8578175 119.699968,22.7543333 120.234919,22.7543333 C120.76987,22.7543333 121.213637,22.8578175 121.566218,23.0647857 C121.918799,23.271754 122.192354,23.5517698 122.386882,23.9048333 C122.581409,24.2578968 122.721226,24.665746 122.806332,25.128381 C122.891438,25.5910159 122.933991,26.078 122.933991,26.5893333 L122.933991,26.5893333 L122.933991,36.5238095 L128.95219,36.5238095 L128.95219,25.2744762 C128.95219,24.3735556 128.836689,23.4726349 128.605687,22.5717143 C128.374686,21.6707937 127.997788,20.8733571 127.474995,20.1794048 C126.952202,19.4854524 126.265276,18.9193333 125.414218,18.4810476 C124.56316,18.0427619 123.529731,17.823619 122.313934,17.823619 C121.681719,17.823619 121.085978,17.9088413 120.526711,18.0792857 C119.967444,18.2497302 119.45073,18.468873 118.976569,18.7367143 C118.502408,19.0045556 118.089036,19.3271825 117.736455,19.7045952 C117.383874,20.0820079 117.098161,20.4655079 116.879318,20.8550952 L116.879318,20.8550952 L116.80637,20.8550952 L116.80637,18.3349524 L111.007014,18.3349524 L111.007014,36.5238095 L117.025213,36.5238095 Z M136.77164,36.9620952 C137.865858,36.9620952 138.881049,36.755127 139.817213,36.3411905 C140.753378,35.927254 141.452461,35.342873 141.914464,34.5880476 L141.914464,34.5880476 L142.023886,34.5880476 L142.023886,36.5238095 L147.494976,36.5238095 L147.494976,27.3563333 C147.494976,25.7005873 147.343002,24.2700714 147.039052,23.0647857 C146.735103,21.8595 146.254863,20.8611825 145.598332,20.0698333 C144.941801,19.2784841 144.084664,18.6941032 143.026919,18.3166905 C141.969175,17.9392778 140.674351,17.7505714 139.142445,17.7505714 C137.659172,17.7505714 136.206294,18.0062381 134.78381,18.5175714 C133.361327,19.0289048 132.115134,19.7959048 131.045232,20.8185714 L131.045232,20.8185714 L134.072569,24.0691905 C134.631836,23.5578571 135.306603,23.1195714 136.096872,22.7543333 C136.887141,22.3890952 137.707804,22.2064762 138.558863,22.2064762 C139.482869,22.2064762 140.260979,22.4195317 140.893194,22.8456429 C141.525409,23.271754 141.841517,23.9352698 141.841517,24.8361905 L141.841517,24.8361905 L141.841517,25.128381 C140.528455,25.128381 139.178919,25.2014286 137.79291,25.3475238 C136.4069,25.493619 135.14855,25.7858095 134.017858,26.2240952 C132.887166,26.662381 131.96316,27.2832857 131.245839,28.0868095 C130.528518,28.8903333 130.169858,29.9495238 130.169858,31.264381 C130.169858,32.335746 130.376543,33.2366667 130.789915,33.9671429 C131.203286,34.697619 131.732158,35.282 132.376531,35.7202857 C133.020904,36.1585714 133.732145,36.4751111 134.510256,36.6699048 C135.288367,36.8646984 136.042161,36.9620952 136.77164,36.9620952 Z M138.267071,32.9444762 C137.97528,32.9444762 137.67133,32.9140397 137.355223,32.8531667 C137.039115,32.7922937 136.759482,32.6888095 136.516322,32.5427143 C136.273163,32.396619 136.072556,32.2018254 135.914502,31.9583333 C135.756449,31.7148413 135.677422,31.4226508 135.677422,31.0817619 C135.677422,30.5460794 135.847633,30.113881 136.188057,29.7851667 C136.52848,29.4564524 136.960088,29.206873 137.482882,29.0364286 C138.005675,28.8659841 138.601415,28.7503254 139.270104,28.6894524 C139.938793,28.6285794 140.601403,28.5981429 141.257934,28.5981429 L141.257934,28.5981429 L142.023886,28.5981429 L142.023886,29.2190476 C142.023886,30.3634603 141.7017,31.2704683 141.057327,31.9400714 C140.412954,32.6096746 139.482869,32.9444762 138.267071,32.9444762 Z" id="athena" fill="#303030" fill-rule="nonzero"></path>
                    <path d="M18.172436,36.5238095 L18.172436,26.662381 C18.172436,26.1510476 18.2393049,25.6579762 18.3730427,25.1831667 C18.5067804,24.7083571 18.707387,24.2883333 18.9748626,23.9230952 C19.2423381,23.5578571 19.5766825,23.271754 19.9778957,23.0647857 C20.379109,22.8578175 20.8471912,22.7543333 21.3821422,22.7543333 C21.9170932,22.7543333 22.3608594,22.8578175 22.7134408,23.0647857 C23.0660221,23.271754 23.3395766,23.5517698 23.5341043,23.9048333 C23.7286319,24.2578968 23.8684487,24.665746 23.9535545,25.128381 C24.0386603,25.5910159 24.0812133,26.078 24.0812133,26.5893333 L24.0812133,36.5238095 L30.0994123,36.5238095 L30.0994123,25.2744762 C30.0994123,24.3735556 29.9839115,23.4726349 29.75291,22.5717143 C29.5219084,21.6707937 29.1450111,20.8733571 28.622218,20.1794048 C28.099425,19.4854524 27.4124992,18.9193333 26.5614408,18.4810476 C25.7103823,18.0427619 24.6769542,17.823619 23.4611564,17.823619 C22.8289415,17.823619 22.2332006,17.9088413 21.6739336,18.0792857 C21.1146667,18.2497302 20.5979526,18.468873 20.1237915,18.7367143 C19.6496303,19.0045556 19.2362591,19.3271825 18.8836777,19.7045952 C18.5310964,20.0820079 18.2453839,20.4655079 18.0265403,20.8550952 L17.9535924,20.8550952 C17.9535924,19.4632588 16.825286,18.3349524 15.4334496,18.3349524 L15.0539147,18.3349524 C13.4524669,18.3349524 12.154237,19.6331823 12.154237,21.2346301 L12.154237,36.5238095 L12.154237,36.5238095 L18.172436,36.5238095 Z" id="n-copy-2" fill="#909090" fill-rule="nonzero"></path>
                    <rect id="Rectangle-Copy-2" fill="#000000" filter="url(#filter-1)" x="14.7298578" y="20.3690476" width="3.507109" height="4.91666667"></rect>
                    <path d="M6.60178199,36.9620952 C7.23399684,36.9620952 7.83581675,36.876873 8.40724171,36.7064286 C8.97866667,36.5359841 9.50145972,36.3168413 9.97562085,36.049 C10.449782,35.7811587 10.8631532,35.464619 11.2157346,35.099381 C11.568316,34.7341429 11.8540284,34.3445556 12.072872,33.930619 L12.1458199,33.930619 L12.1458199,36.4507619 L17.9087014,36.4507619 L17.9087014,21.2527673 C17.9087014,19.6009595 16.5696466,18.2619048 14.9178389,18.2619048 C13.2660311,18.2619048 11.9269763,19.6009595 11.9269763,21.2527673 L11.9269763,28.0868095 L11.9269763,28.0868095 C11.9269763,29.1338254 11.6534218,30.0469206 11.1063128,30.8260952 C10.5592038,31.6052698 9.76285624,31.9948571 8.71727014,31.9948571 C8.15800316,31.9948571 7.70815798,31.891373 7.3677346,31.6844048 C7.02731122,31.4774365 6.75375671,31.1913333 6.54707109,30.8260952 C6.34038547,30.4608571 6.20056872,30.0469206 6.12762085,29.5842857 C6.05467299,29.1216508 6.01819905,28.6346667 6.01819905,28.1233333 L6.01819905,24.2801038 C6.01819905,20.9563443 3.32375956,18.2619048 -2.57916911e-13,18.2619048 L-2.57916911e-13,18.2619048 L-2.57916911e-13,18.2619048 L-2.57916911e-13,29.5112381 C-2.57916911e-13,30.4365079 0.11550079,31.3435159 0.34650237,32.2322619 C0.577503949,33.1210079 0.954401264,33.9123571 1.47719431,34.6063095 C1.99998736,35.3002619 2.68083412,35.866381 3.5197346,36.3046667 C4.35863507,36.7429524 5.3859842,36.9620952 6.60178199,36.9620952 Z" id="u-copy-2" fill="#909090" fill-rule="nonzero"></path>
                </g>
                <polygon id="i-copy-6" fill="#909090" fill-rule="nonzero" points="38.5781991 36.5238095 38.5781991 18.2619048 32.2654028 18.2619048 32.2654028 36.5238095"></polygon>
                <path d="M35.7725118,15.452381 C36.245101,15.452381 36.6990353,15.3704365 37.1343148,15.2065476 C37.5695943,15.0426587 37.942691,14.8202381 38.2536049,14.5392857 C38.5645188,14.2583333 38.81325,13.9247024 38.9997983,13.5383929 C39.1863467,13.1520833 39.2796209,12.7365079 39.2796209,12.2916667 C39.2796209,11.8468254 39.1863467,11.43125 38.9997983,11.0449405 C38.81325,10.658631 38.5645188,10.325 38.2536049,10.0440476 C37.942691,9.76309524 37.5695943,9.5406746 37.1343148,9.37678571 C36.6990353,9.21289683 36.245101,9.13095238 35.7725118,9.13095238 C35.2750496,9.13095238 34.814897,9.21875 34.392054,9.39434524 C33.9692111,9.56994048 33.5961144,9.79821429 33.2727639,10.0791667 C32.9494135,10.360119 32.7006823,10.69375 32.5265705,11.0800595 C32.3524587,11.466369 32.2654028,11.8702381 32.2654028,12.2916667 C32.2654028,13.1579365 32.6011899,13.9012897 33.2727639,14.5217262 C33.944338,15.1421627 34.7775873,15.452381 35.7725118,15.452381 Z" id="Path-Copy-6" fill="#909090"></path>
                <g id="upload-copy-3" transform="translate(91.184834, 9.130952)" fill="#FF006E" fill-rule="nonzero">
                    <path d="M9.39913902,0.102815781 C9.24433586,-0.0342719271 8.99338006,-0.0342719271 8.83853973,0.102815781 L0.116561871,7.82851804 C0.0419664482,7.8943952 0,7.9838446 0,8.07714589 L0,10.8862884 C-0.000404644155,11.0802326 0.176810591,11.237732 0.39576507,11.2380952 C0.501321124,11.2382588 0.602602902,11.2011226 0.677161158,11.1349162 L9.11848629,3.65711753 L17.5598114,11.1349162 C17.7144287,11.2722344 17.9654589,11.2724978 18.120485,11.1355417 C18.1952291,11.0695 18.2371542,10.9797872 18.2369668,10.8862884 L18.2369668,8.07714589 C18.2371542,7.98394337 18.1955265,7.89449397 18.1211912,7.82851804 L9.39913902,0.102815781 Z" id="Path"></path>
                </g>
                <path d="M3.07222749,52.6785714 L3.66983886,51.212 L6.49797156,51.212 L7.104,52.6785714 L8.0467109,52.6785714 L5.48792417,46.7111429 L4.73038863,46.7111429 L2.14635071,52.6785714 L3.07222749,52.6785714 Z M6.19495735,50.4787143 L3.96443602,50.4787143 L5.08390521,47.6804286 L6.19495735,50.4787143 Z M11.0664321,52.6785714 L11.0664321,47.4444286 L12.977105,47.4444286 L12.977105,46.7111429 L8.32246997,46.7111429 L8.32246997,47.4444286 L10.233143,47.4444286 L10.233143,52.6785714 L11.0664321,52.6785714 Z M15.2729589,52.6785714 L15.2729589,49.9477143 L18.286267,49.9477143 L18.286267,52.6785714 L19.1279731,52.6785714 L19.1279731,46.7111429 L18.286267,46.7111429 L18.286267,49.206 L15.2729589,49.206 L15.2729589,46.7111429 L14.4396698,46.7111429 L14.4396698,52.6785714 L15.2729589,52.6785714 Z M25.1946706,52.6785714 L25.1946706,51.9368571 L22.0803578,51.9368571 L22.0803578,49.9477143 L24.8916564,49.9477143 L24.8916564,49.2312857 L22.0803578,49.2312857 L22.0803578,47.4444286 L25.0684147,47.4444286 L25.0684147,46.7111429 L21.2470687,46.7111429 L21.2470687,52.6785714 L25.1946706,52.6785714 Z M27.8103728,52.6785714 L27.8103728,47.8068571 L27.8272069,47.8068571 L30.9751879,52.6785714 L32.0273206,52.6785714 L32.0273206,46.7111429 L31.1940315,46.7111429 L31.1940315,51.4817143 L31.1771974,51.4817143 L28.0628846,46.7111429 L26.9770837,46.7111429 L26.9770837,52.6785714 L27.8103728,52.6785714 Z M34.390511,52.6785714 L34.9881224,51.212 L37.8162551,51.212 L38.4222835,52.6785714 L39.3649944,52.6785714 L36.8062077,46.7111429 L36.0486721,46.7111429 L33.4646342,52.6785714 L34.390511,52.6785714 Z M37.5132409,50.4787143 L35.2827195,50.4787143 L36.4021887,47.6804286 L37.5132409,50.4787143 Z M46.7259154,52.8302857 C47.1636026,52.8302857 47.5676216,52.7853333 47.9379723,52.6954286 C48.308323,52.6055238 48.6506168,52.4762857 48.9648538,52.3077143 L48.9648538,52.3077143 L48.9648538,49.4167143 L46.8185031,49.4167143 L46.8185031,50.1247143 L48.1399817,50.1247143 L48.1399817,51.7851429 C47.9660291,51.8806667 47.761214,51.9537143 47.5255362,52.0042857 C47.2898585,52.0548571 47.0317353,52.0801429 46.7511666,52.0801429 C46.39765,52.0801429 46.0778016,52.0183333 45.7916216,51.8947143 C45.5054415,51.7710952 45.2641524,51.601119 45.0677543,51.3847857 C44.8713562,51.1684524 44.719849,50.9141905 44.6132329,50.622 C44.5066168,50.3298095 44.4533088,50.0179524 44.4533088,49.6864286 C44.4533088,49.3605238 44.5066168,49.052881 44.6132329,48.7635 C44.719849,48.474119 44.8713562,48.2198571 45.0677543,48.0007143 C45.2641524,47.7815714 45.5026358,47.6087857 45.7832045,47.4823571 C46.0637732,47.3559286 46.3780102,47.2927143 46.7259154,47.2927143 C47.0682092,47.2927143 47.3782377,47.3517143 47.6560007,47.4697143 C47.9337637,47.5877143 48.1624272,47.7450476 48.3419912,47.9417143 L48.3419912,47.9417143 L48.9227685,47.3348571 C48.675868,47.0988571 48.3658396,46.910619 47.9926832,46.7701429 C47.6195268,46.6296667 47.1944652,46.5594286 46.7174983,46.5594286 C46.262977,46.5594286 45.8421239,46.6352857 45.4549391,46.787 C45.0677543,46.9387143 44.7324746,47.1508333 44.4491002,47.4233571 C44.1657258,47.695881 43.9440765,48.0245952 43.7841524,48.4095 C43.6242282,48.7944048 43.5442661,49.2200476 43.5442661,49.6864286 C43.5442661,50.1471905 43.6228253,50.5700238 43.7799438,50.9549286 C43.9370623,51.3398333 44.1559059,51.6713571 44.4364746,51.9495 C44.7170434,52.2276429 45.052323,52.4439762 45.4423135,52.5985 C45.832304,52.7530238 46.2601713,52.8302857 46.7259154,52.8302857 Z M55.1914754,52.6785714 L55.1914754,51.9368571 L52.5316839,51.9368571 L52.5316839,46.7111429 L51.6983948,46.7111429 L51.6983948,52.6785714 L55.1914754,52.6785714 Z M59.8946089,52.8302857 C60.3491302,52.8302857 60.7699833,52.7530238 61.1571681,52.5985 C61.544353,52.4439762 61.8782297,52.2276429 62.1587985,51.9495 C62.4393672,51.6713571 62.6596136,51.3398333 62.8195378,50.9549286 C62.979462,50.5700238 63.0594241,50.1471905 63.0594241,49.6864286 C63.0594241,49.2200476 62.979462,48.7944048 62.8195378,48.4095 C62.6596136,48.0245952 62.4393672,47.695881 62.1587985,47.4233571 C61.8782297,47.1508333 61.544353,46.9387143 61.1571681,46.787 C60.7699833,46.6352857 60.3491302,46.5594286 59.8946089,46.5594286 C59.4400876,46.5594286 59.0206373,46.6352857 58.6362582,46.787 C58.251879,46.9387143 57.9194051,47.1508333 57.6388364,47.4233571 C57.3582677,47.695881 57.1394241,48.0245952 56.9823056,48.4095 C56.8251871,48.7944048 56.7466278,49.2200476 56.7466278,49.6864286 C56.7466278,50.1471905 56.8251871,50.5700238 56.9823056,50.9549286 C57.1394241,51.3398333 57.3582677,51.6713571 57.6388364,51.9495 C57.9194051,52.2276429 58.251879,52.4439762 58.6362582,52.5985 C59.0206373,52.7530238 59.4400876,52.8302857 59.8946089,52.8302857 Z M59.8946089,52.0801429 C59.5523151,52.0801429 59.2436895,52.0183333 58.9687321,51.8947143 C58.6937748,51.7710952 58.458097,51.601119 58.2616989,51.3847857 C58.0653008,51.1684524 57.9137937,50.9141905 57.8071776,50.622 C57.7005615,50.3298095 57.6472534,50.0179524 57.6472534,49.6864286 C57.6472534,49.3605238 57.7005615,49.052881 57.8071776,48.7635 C57.9137937,48.474119 58.063898,48.2198571 58.2574904,48.0007143 C58.4510828,47.7815714 58.6867605,47.6087857 58.9645236,47.4823571 C59.2422866,47.3559286 59.5523151,47.2927143 59.8946089,47.2927143 C60.2425141,47.2927143 60.5553482,47.3559286 60.8331113,47.4823571 C61.1108743,47.6087857 61.3479549,47.7815714 61.544353,48.0007143 C61.7407511,48.2198571 61.8922582,48.474119 61.9988743,48.7635 C62.1054904,49.052881 62.1587985,49.3605238 62.1587985,49.6864286 C62.1587985,50.0179524 62.1054904,50.3298095 61.9988743,50.622 C61.8922582,50.9141905 61.7407511,51.1684524 61.544353,51.3847857 C61.3479549,51.601119 61.1094715,51.7710952 60.8289027,51.8947143 C60.548334,52.0183333 60.2369027,52.0801429 59.8946089,52.0801429 Z M67.4595433,52.6785714 C67.7681689,52.6785714 68.0585575,52.6434524 68.3307092,52.5732143 C68.6028609,52.5029762 68.8399414,52.3990238 69.0419509,52.2613571 C69.2439604,52.1236905 69.4038845,51.9480952 69.5217234,51.7345714 C69.6395623,51.5210476 69.6984817,51.271 69.6984817,50.9844286 C69.6984817,50.7765238 69.6662163,50.5882857 69.6016855,50.4197143 C69.5371547,50.2511429 69.4459699,50.1050476 69.328131,49.9814286 C69.2102921,49.8578095 69.0700078,49.7580714 68.9072779,49.6822143 C68.7445481,49.6063571 68.5677898,49.5571905 68.377003,49.5347143 L68.377003,49.5347143 L68.377003,49.5178571 C68.69124,49.4335714 68.9437518,49.2790476 69.1345386,49.0542857 C69.3253253,48.8295238 69.4207187,48.551381 69.4207187,48.2198571 C69.4207187,47.9332857 69.3660078,47.6944762 69.256586,47.5034286 C69.1471642,47.312381 69.0040741,47.1578571 68.8273158,47.0398571 C68.6505575,46.9218571 68.4499509,46.8375714 68.2254959,46.787 C68.0010409,46.7364286 67.776586,46.7111429 67.552131,46.7111429 L67.552131,46.7111429 L65.498368,46.7111429 L65.498368,52.6785714 L67.4595433,52.6785714 Z M67.417458,49.2312857 L66.3316571,49.2312857 L66.3316571,47.4107143 L67.282785,47.4107143 C67.6811926,47.4107143 67.9982353,47.4795476 68.233913,47.6172143 C68.4695907,47.754881 68.5874296,47.9838571 68.5874296,48.3041429 C68.5874296,48.4670952 68.556567,48.6061667 68.4948419,48.7213571 C68.4331168,48.8365476 68.3489462,48.9320714 68.24233,49.0079286 C68.1357139,49.0837857 68.0108609,49.1399762 67.8677708,49.1765 C67.7246808,49.2130238 67.5745765,49.2312857 67.417458,49.2312857 L67.417458,49.2312857 Z M67.3753727,51.9705714 L66.3316571,51.9705714 L66.3316571,49.9392857 L67.4511263,49.9392857 C67.9056476,49.9392857 68.2535528,50.0179524 68.4948419,50.1752857 C68.736131,50.332619 68.8567755,50.5882857 68.8567755,50.9422857 C68.8567755,51.1445714 68.8132874,51.3117381 68.7263111,51.4437857 C68.6393348,51.5758333 68.5243016,51.6811905 68.3812116,51.7598571 C68.2381215,51.8385238 68.0781973,51.8933095 67.9014391,51.9242143 C67.7246808,51.955119 67.5493253,51.9705714 67.3753727,51.9705714 L67.3753727,51.9705714 Z M72.4488569,52.6785714 L73.0464683,51.212 L75.874601,51.212 L76.4806294,52.6785714 L77.4233403,52.6785714 L74.8645536,46.7111429 L74.107018,46.7111429 L71.5229801,52.6785714 L72.4488569,52.6785714 Z M75.5715867,50.4787143 L73.3410654,50.4787143 L74.4605346,47.6804286 L75.5715867,50.4787143 Z M82.9850141,52.6785714 L82.9850141,51.9368571 L80.3252226,51.9368571 L80.3252226,46.7111429 L79.4919335,46.7111429 L79.4919335,52.6785714 L82.9850141,52.6785714 Z M92.248191,52.6785714 L92.248191,51.9368571 L89.1338782,51.9368571 L89.1338782,49.9477143 L91.9451768,49.9477143 L91.9451768,49.2312857 L89.1338782,49.2312857 L89.1338782,47.4444286 L92.1219351,47.4444286 L92.1219351,46.7111429 L88.3005891,46.7111429 L88.3005891,52.6785714 L92.248191,52.6785714 Z M96.7072297,52.6785714 C97.0888031,52.6785714 97.4703766,52.6181667 97.85195,52.4973571 C98.2335235,52.3765476 98.578623,52.1939286 98.8872486,51.9495 C99.1958742,51.7050714 99.4455804,51.3960238 99.6363671,51.0223571 C99.8271538,50.6486905 99.9225472,50.2061905 99.9225472,49.6948571 C99.9225472,49.1666667 99.8271538,48.7143333 99.6363671,48.3378571 C99.4455804,47.961381 99.1958742,47.6523333 98.8872486,47.4107143 C98.578623,47.1690952 98.2335235,46.9920952 97.85195,46.8797143 C97.4703766,46.7673333 97.0888031,46.7111429 96.7072297,46.7111429 L96.7072297,46.7111429 L94.6618837,46.7111429 L94.6618837,52.6785714 L96.7072297,52.6785714 Z M96.5388884,51.9452857 L95.4951728,51.9452857 L95.4951728,47.436 L96.5388884,47.436 C96.8980164,47.436 97.2304903,47.4851667 97.5363102,47.5835 C97.8421301,47.6818333 98.1058647,47.825119 98.327514,48.0133571 C98.5491633,48.2015952 98.7217131,48.4361905 98.8451633,48.7171429 C98.9686136,48.9980952 99.0303387,49.324 99.0303387,49.6948571 C99.0303387,50.0488571 98.9686136,50.3663333 98.8451633,50.6472857 C98.7217131,50.9282381 98.5491633,51.1642381 98.327514,51.3552857 C98.1058647,51.5463333 97.8421301,51.6924286 97.5363102,51.7935714 C97.2304903,51.8947143 96.8980164,51.9452857 96.5388884,51.9452857 L96.5388884,51.9452857 Z M104.642515,52.8302857 C105.035311,52.8302857 105.377605,52.7642619 105.669396,52.6322143 C105.961188,52.5001667 106.202477,52.3245714 106.393264,52.1054286 C106.58405,51.8862857 106.725738,51.6348333 106.818325,51.3510714 C106.910913,51.0673095 106.957207,50.7737143 106.957207,50.4702857 L106.957207,50.4702857 L106.957207,46.7111429 L106.123918,46.7111429 L106.123918,50.4197143 C106.123918,50.622 106.098666,50.822881 106.048164,51.0223571 C105.997662,51.2218333 105.914894,51.4002381 105.799861,51.5575714 C105.684828,51.7149048 105.531918,51.8413333 105.341131,51.9368571 C105.150344,52.032381 104.917472,52.0801429 104.642515,52.0801429 C104.361946,52.0801429 104.127671,52.032381 103.93969,51.9368571 C103.751709,51.8413333 103.600202,51.7149048 103.485169,51.5575714 C103.370136,51.4002381 103.287368,51.2218333 103.236866,51.0223571 C103.186363,50.822881 103.161112,50.622 103.161112,50.4197143 L103.161112,50.4197143 L103.161112,46.7111429 L102.327823,46.7111429 L102.327823,50.4702857 C102.327823,50.7737143 102.374117,51.0673095 102.466704,51.3510714 C102.559292,51.6348333 102.700979,51.8862857 102.891766,52.1054286 C103.082553,52.3245714 103.323842,52.5001667 103.615633,52.6322143 C103.907425,52.7642619 104.249719,52.8302857 104.642515,52.8302857 Z M112.502046,52.8302857 C113.029516,52.8302857 113.481231,52.7305476 113.857193,52.5310714 C114.233155,52.3315952 114.538975,52.0717143 114.774653,51.7514286 L114.774653,51.7514286 L114.109705,51.2962857 C113.930141,51.5547619 113.702881,51.7514286 113.427923,51.8862857 C113.152966,52.0211429 112.847146,52.0885714 112.510463,52.0885714 C112.16817,52.0885714 111.858141,52.0267619 111.580378,51.9031429 C111.302615,51.7795238 111.066937,51.6095476 110.873345,51.3932143 C110.679753,51.176881 110.531051,50.922619 110.427241,50.6304286 C110.32343,50.3382381 110.271525,50.0235714 110.271525,49.6864286 C110.271525,49.3605238 110.324833,49.052881 110.431449,48.7635 C110.538065,48.474119 110.689572,48.2198571 110.885971,48.0007143 C111.082369,47.7815714 111.319449,47.6087857 111.597212,47.4823571 C111.874975,47.3559286 112.187809,47.2927143 112.535715,47.2927143 C112.84434,47.2927143 113.131923,47.3587381 113.398463,47.4907857 C113.665004,47.6228333 113.871222,47.79 114.017117,47.9922857 L114.017117,47.9922857 L114.673648,47.4865714 C114.561421,47.3348571 114.426748,47.2014048 114.269629,47.0862143 C114.112511,46.9710238 113.938558,46.8740952 113.747772,46.7954286 C113.556985,46.7167619 113.357781,46.6577619 113.15016,46.6184286 C112.942539,46.5790952 112.737724,46.5594286 112.535715,46.5594286 C112.081193,46.5594286 111.66034,46.6352857 111.273155,46.787 C110.885971,46.9387143 110.550691,47.1508333 110.267317,47.4233571 C109.983942,47.695881 109.762293,48.0245952 109.602369,48.4095 C109.442444,48.7944048 109.362482,49.2200476 109.362482,49.6864286 C109.362482,50.1471905 109.441042,50.5700238 109.59816,50.9549286 C109.755279,51.3398333 109.972719,51.6713571 110.250482,51.9495 C110.528245,52.2276429 110.859317,52.4439762 111.243696,52.5985 C111.628075,52.7530238 112.047525,52.8302857 112.502046,52.8302857 Z M117.070507,52.6785714 L117.668118,51.212 L120.496251,51.212 L121.102279,52.6785714 L122.04499,52.6785714 L119.486204,46.7111429 L118.728668,46.7111429 L116.14463,52.6785714 L117.070507,52.6785714 Z M120.193237,50.4787143 L117.962715,50.4787143 L119.082185,47.6804286 L120.193237,50.4787143 Z M125.695991,52.6785714 L125.695991,47.4444286 L127.606664,47.4444286 L127.606664,46.7111429 L122.952029,46.7111429 L122.952029,47.4444286 L124.862702,47.4444286 L124.862702,52.6785714 L125.695991,52.6785714 Z M130.533798,52.6785714 L130.533798,46.7111429 L129.700508,46.7111429 L129.700508,52.6785714 L130.533798,52.6785714 Z M136.12914,52.8302857 C136.583661,52.8302857 137.004514,52.7530238 137.391699,52.5985 C137.778884,52.4439762 138.11276,52.2276429 138.393329,51.9495 C138.673898,51.6713571 138.894144,51.3398333 139.054068,50.9549286 C139.213993,50.5700238 139.293955,50.1471905 139.293955,49.6864286 C139.293955,49.2200476 139.213993,48.7944048 139.054068,48.4095 C138.894144,48.0245952 138.673898,47.695881 138.393329,47.4233571 C138.11276,47.1508333 137.778884,46.9387143 137.391699,46.787 C137.004514,46.6352857 136.583661,46.5594286 136.12914,46.5594286 C135.674618,46.5594286 135.255168,46.6352857 134.870789,46.787 C134.48641,46.9387143 134.153936,47.1508333 133.873367,47.4233571 C133.592798,47.695881 133.373955,48.0245952 133.216836,48.4095 C133.059718,48.7944048 132.981159,49.2200476 132.981159,49.6864286 C132.981159,50.1471905 133.059718,50.5700238 133.216836,50.9549286 C133.373955,51.3398333 133.592798,51.6713571 133.873367,51.9495 C134.153936,52.2276429 134.48641,52.4439762 134.870789,52.5985 C135.255168,52.7530238 135.674618,52.8302857 136.12914,52.8302857 Z M136.12914,52.0801429 C135.786846,52.0801429 135.47822,52.0183333 135.203263,51.8947143 C134.928305,51.7710952 134.692628,51.601119 134.49623,51.3847857 C134.299831,51.1684524 134.148324,50.9141905 134.041708,50.622 C133.935092,50.3298095 133.881784,50.0179524 133.881784,49.6864286 C133.881784,49.3605238 133.935092,49.052881 134.041708,48.7635 C134.148324,48.474119 134.298429,48.2198571 134.492021,48.0007143 C134.685613,47.7815714 134.921291,47.6087857 135.199054,47.4823571 C135.476817,47.3559286 135.786846,47.2927143 136.12914,47.2927143 C136.477045,47.2927143 136.789879,47.3559286 137.067642,47.4823571 C137.345405,47.6087857 137.582486,47.7815714 137.778884,48.0007143 C137.975282,48.2198571 138.126789,48.474119 138.233405,48.7635 C138.340021,49.052881 138.393329,49.3605238 138.393329,49.6864286 C138.393329,50.0179524 138.340021,50.3298095 138.233405,50.622 C138.126789,50.9141905 137.975282,51.1684524 137.778884,51.3847857 C137.582486,51.601119 137.344002,51.7710952 137.063433,51.8947143 C136.782865,52.0183333 136.471433,52.0801429 136.12914,52.0801429 Z M142.566188,52.6785714 L142.566188,47.8068571 L142.583022,47.8068571 L145.731003,52.6785714 L146.783136,52.6785714 L146.783136,46.7111429 L145.949846,46.7111429 L145.949846,51.4817143 L145.933012,51.4817143 L142.8187,46.7111429 L141.732899,46.7111429 L141.732899,52.6785714 L142.566188,52.6785714 Z" id="ATHENAGLOBALEDUCATION" fill="#303030" fill-rule="nonzero"></path>
                <line x1="146.806491" y1="40.938647" x2="1.7535545" y2="41.0892857" id="Path-2-Copy-4" stroke="#FF006E" stroke-linecap="round"></line>
            </g>
        </g>
    </g>
</svg>