<?xml version="1.0" encoding="utf-8"?>
<!-- Generator: Adobe Illustrator 27.3.1, SVG Export Plug-In . SVG Version: 6.00 Build 0)  -->
<svg version="1.1" id="Layer_1" xmlns="http://www.w3.org/2000/svg" xmlns:xlink="http://www.w3.org/1999/xlink" x="0px" y="0px"
	 viewBox="0 0 1080 1080" style="enable-background:new 0 0 1080 1080;" xml:space="preserve">
<style type="text/css">
	.st0{fill:#057976;}
	.st1{fill:#0C1B2B;}
	.st2{fill:#33BEBE;}
	.st3{fill:#90D2C8;}
</style>
<g>
	<polygon class="st0" points="351.4,525.4 322.6,540.1 293.5,525.5 293.5,497.2 	"/>
	<polygon class="st0" points="351.4,574.2 322.6,588.9 293.5,574.3 293.5,546.1 	"/>
	<g>
		<path class="st1" d="M495.3,489.4v14.9h31v12.1h-31v14h34.8v12.1h-47.8v-65h47.8v12.1H495.3z"/>
		<path class="st1" d="M582.4,542.4l-16-22.4l-16,22.4h-15.1l22.3-32.1l-21.9-32.9h15.9l14.8,22.5l14.7-22.5H597l-21.9,32.9
			l22.4,32.1H582.4z"/>
		<path class="st1" d="M618.3,489.4v14.9h31v12.1h-31v14h34.8v12.1h-47.8v-65h47.8v12.1H618.3z"/>
		<path class="st1" d="M676.9,489.4v14.9h31v12.1h-31v14h34.8v12.1h-47.8v-65h47.8v12.1H676.9z"/>
		<path class="st1" d="M782.2,509.6c0,18.7-14.9,32.8-34.8,32.8h-25v-65h25C767.2,477.4,782.2,491.2,782.2,509.6z M769,509.6
			c0-11.2-9.7-20.2-21.6-20.2h-12v40.9h12C759.3,530.4,769,521.2,769,509.6z"/>
	</g>
	<g>
		<path class="st1" d="M544,590.8c0,9.2-3.5,16.1-12.5,16.1c-5.6,0-8.8-2-10.6-4.8c-2.5,2.9-6.5,4.7-10.8,4.7
			c-8.5,0-14.8-6.8-14.8-15.3c0-8.6,6.3-15.3,14.8-15.3c3.3,0,6.4,1,8.7,2.8v-2.1h8.4v16.8c0,4.4,1.7,6.2,4.3,6.2
			c4,0,5.7-3.3,5.7-8.9c0-14.1-10.5-24.1-24.7-24.1c-14.3,0-25.5,10.8-25.5,24.6c0,14,11.4,24.5,25,24.5c5.7,0,11.3-1.8,15.7-5.2
			l3.8,5.7c-5.5,4-12.3,6.1-19.3,6.1c-17.7,0-32.2-13.2-32.2-31.1c0-17.8,14.3-31.2,32.5-31.2C530.7,560.2,544,572.8,544,590.8z
			 M518.9,594.9c-0.1-1-0.1-2.1-0.1-3.2V588c-1.9-3-4.8-4.3-7.3-4.3c-3.7,0-7.6,2.9-7.6,7.9c0,4.9,3.9,7.8,7.6,7.8
			C513.7,599.3,516.8,598.3,518.9,594.9z"/>
		<path class="st1" d="M628.4,559.4l-16.3,49.8h-9.7l-11.1-31.9l-11.1,31.9h-9.7l-16.3-49.8h10.5l10.8,34.2l11.7-34.2h8.4l11.7,34.2
			l10.8-34.2H628.4z"/>
		<path class="st1" d="M682.3,584.2c0,14.3-11.5,25.6-25.7,25.6c-14.3,0-25.7-11.3-25.7-25.6c0-14.3,11.5-25.6,25.7-25.6
			C670.8,558.6,682.3,569.9,682.3,584.2z M672.3,584.2c0-9-6.7-16.4-15.7-16.4c-9,0-15.7,7.3-15.7,16.4s6.7,16.4,15.7,16.4
			C665.6,600.5,672.3,593.2,672.3,584.2z"/>
		<path class="st1" d="M711.4,593.2h-10.2v15.7h-9.9v-49.5h20.9c11.1,0,19.3,6.7,19.3,16.9c0,6.9-3.8,12.2-9.7,14.9l12.9,17.7h-12
			L711.4,593.2z M701.2,584h10.6c5.5,0,10-3,10-7.7s-4.5-7.7-10-7.7h-10.6V584z"/>
		<path class="st1" d="M758.5,588.6l-8.1,9.1v11.2h-9.9v-49.5h9.9v24.8l22.2-24.8h11.9l-19.3,21.7l21.4,27.7h-12.7L758.5,588.6z"/>
	</g>
	<polygon class="st2" points="426,458.2 426,579.7 372.8,552.9 293.5,592.3 293.5,621.8 372.7,581.9 453.4,621.8 453.4,471.8 	"/>
	<polygon class="st3" points="293.5,543.6 293.5,573.1 372.7,533.3 372.7,505.1 	"/>
	<polygon class="st3" points="293.5,496 293.5,525.5 372.7,485.7 372.7,457.5 	"/>
</g>
</svg>
