<?xml version="1.0" encoding="utf-8"?>
<!-- Generator: Adobe Illustrator 23.0.1, SVG Export Plug-In . SVG Version: 6.00 Build 0)  -->
<svg version="1.1" id="Layer_1" xmlns="http://www.w3.org/2000/svg" xmlns:xlink="http://www.w3.org/1999/xlink" x="0px" y="0px"
	 viewBox="0 0 224 47" style="enable-background:new 0 0 224 47;" xml:space="preserve">
<style type="text/css">
	.st0{display:none;}
	.st1{display:inline;fill:#056CC1;}
	.st2{display:inline;fill:#231F20;}
	.st3{display:inline;fill:url(#SVGID_1_);}
	.st4{display:inline;fill:url(#SVGID_2_);}
	.st5{display:inline;fill:url(#SVGID_3_);}
	.st6{display:inline;fill:url(#SVGID_4_);}
	.st7{display:inline;}
	.st8{fill:#EA2335;}
	.st9{fill:#283981;}
	.st10{fill:#FFFFFF;}
	.st11{fill:#30302F;}
	.st12{fill:#818181;}
	.st13{fill:#A41D38;}
	.st14{fill:#555657;}
	.st15{fill:#1B2F5B;}
	.st16{fill:#5B5B5D;}
	.st17{fill:#EB5326;}
	.st18{fill:#CC4928;}
	.st19{fill:#781029;}
	.st20{fill:#122045;}
	.st21{fill:#48484A;}
	.st22{fill:#9D1E3C;}
</style>
<g class="st0">
	<path class="st1" d="M71.1,33.5c-5.1,0-8.6-2.9-8.8-6.7h5.1c0.2,1.5,1.6,2.7,3.6,2.7c2,0,3.1-0.9,3.1-2.1c0-3.6-11.4-1.3-11.4-8.7
		c0-3.4,3-6,8-6c4.9,0,7.8,2.7,8.1,6.7h-4.9c-0.1-1.6-1.4-2.6-3.4-2.6c-1.9,0-2.9,0.8-2.9,1.9c0,3.7,11.2,1.4,11.3,8.8
		C79,30.8,76,33.5,71.1,33.5z"/>
	<path class="st1" d="M91.2,12.6c5,0,8.4,2.6,9.5,7.1h-5.5c-0.6-1.7-1.9-2.8-4-2.8c-2.8,0-4.7,2.1-4.7,6.1s1.9,6,4.7,6
		c2.1,0,3.4-0.9,4-2.8h5.5c-1.1,4.3-4.5,7.1-9.5,7.1c-5.8,0-10-4.1-10-10.4S85.4,12.6,91.2,12.6z"/>
	<path class="st1" d="M103.7,6.2h5.1V17c0.6-3,3.6-4.3,6.3-4.3c4.5,0,7.9,3.1,7.9,8.6v11.8h-5.1V22c0-3.2-1.8-5-4.5-5
		c-2.8,0-4.5,1.7-4.5,5v11.1h-5.1L103.7,6.2L103.7,6.2z"/>
	<path class="st1" d="M140.4,22c0-3.2-1.8-5-4.5-5c-2.8,0-4.5,1.7-4.5,5v11.1h-5.1V13h5.1v3.9c0.8-2.3,3.5-4.1,6.1-4.1
		c4.7,0,8,3.1,8,8.6v11.8h-5.1L140.4,22L140.4,22z"/>
	<path class="st1" d="M158.6,33.5c-5.9,0-10.1-4.1-10.1-10.4c0-6.4,4.1-10.4,10.1-10.4c5.8,0,9.9,4,9.9,10c0,0.7,0,1.3-0.1,2h-14.7
		c0.3,3,2.3,4.7,4.8,4.7c2.2,0,3.4-1.1,4-2.4h5.5C167,30.5,163.6,33.5,158.6,33.5z M153.7,21.2h9.6c-0.1-2.7-2.2-4.3-4.8-4.3
		C156,16.8,154.1,18.4,153.7,21.2z"/>
	<path class="st1" d="M171.3,7.6c0-1.7,1.3-3,3.1-3c1.8,0,3.1,1.3,3.1,3c0,1.7-1.3,3-3.1,3C172.6,10.6,171.3,9.3,171.3,7.6z
		 M171.8,13h5.1v20.2h-5.1V13z"/>
	<path class="st1" d="M189.2,12.8c2.7,0,5.8,1.6,6.6,4.7V6.3h5.2v26.9h-5.2v-4.1c-1,2.6-3.5,4.5-6.6,4.5c-5.1,0-9.2-4.2-9.2-10.5
		S184,12.8,189.2,12.8z M190.5,17.2c-2.7,0-5.3,2-5.3,5.9c0,3.8,2.6,6,5.3,6c2.8,0,5.4-2.1,5.4-5.9
		C195.8,19.3,193.3,17.2,190.5,17.2z"/>
	<path class="st1" d="M214.1,33.5c-5.9,0-10.1-4.1-10.1-10.4c0-6.4,4.1-10.4,10.1-10.4c5.8,0,9.9,4,9.9,10c0,0.7,0,1.3-0.1,2h-14.7
		c0.3,3,2.3,4.7,4.8,4.7c2.2,0,3.4-1.1,4-2.4h5.5C222.4,30.5,219,33.5,214.1,33.5z M209.1,21.2h9.6c-0.1-2.7-2.2-4.3-4.8-4.3
		C211.5,16.8,209.6,18.4,209.1,21.2z"/>
	<path class="st2" d="M65,39.9c1.2,0,2.1,0.6,2.5,1.6h-0.8c-0.3-0.7-0.9-1-1.7-1c-1.1,0-2,0.8-2,2.1c0,1.3,0.8,2.1,2,2.1
		c0.8,0,1.4-0.4,1.7-1h0.8c-0.4,1-1.3,1.6-2.5,1.6c-1.5,0-2.7-1.1-2.7-2.7C62.3,41.1,63.4,39.9,65,39.9z"/>
	<path class="st2" d="M71.8,40c1.3,0,1.9,0.7,1.9,1.6c0,0.7-0.4,1.3-1.3,1.5l1.4,2.3h-0.8l-1.3-2.2h-0.8v2.2H70V40L71.8,40L71.8,40z
		 M71.8,40.6h-1v2h1c0.8,0,1.1-0.4,1.1-1C72.9,41,72.6,40.6,71.8,40.6z"/>
	<path class="st2" d="M79.2,40.6H77v1.8h2v0.6h-2v1.9h2.2v0.6h-2.9V40h2.9V40.6z"/>
	<path class="st2" d="M85,44.2h-2.3l-0.4,1.2h-0.7l2-5.4h0.8l1.9,5.4h-0.7L85,44.2z M83.8,40.9l-1,2.7h2L83.8,40.9z"/>
	<path class="st2" d="M88.2,40h3.6v0.6h-1.5v4.8h-0.7v-4.8h-1.5V40z"/>
	<path class="st2" d="M94.3,40H95v5.4h-0.7V40z"/>
	<path class="st2" d="M101.5,40h0.7l-2,5.4h-0.8l-2-5.4h0.8l1.7,4.6L101.5,40z"/>
	<path class="st2" d="M107.4,40.6h-2.2v1.8h2v0.6h-2v1.9h2.2v0.6h-2.9V40h2.9V40.6z"/>
	<path class="st2" d="M114.6,39.2v7h-0.7v-7H114.6z"/>
	<path class="st2" d="M124,40.6h-2.2v1.8h2v0.6h-2v1.9h2.2v0.6h-2.9V40h2.9V40.6z"/>
	<path class="st2" d="M126.6,40h3.1v0.6h-2.3v1.8h1.9V43h-1.9v2.4h-0.7L126.6,40L126.6,40z"/>
	<path class="st2" d="M132,40h3.1v0.6h-2.3v1.8h1.9V43h-1.9v2.4h-0.7L132,40L132,40z"/>
	<path class="st2" d="M140.4,40.6h-2.2v1.8h2v0.6h-2v1.9h2.2v0.6h-2.9V40h2.9V40.6z"/>
	<path class="st2" d="M145.4,39.9c1.2,0,2.1,0.6,2.5,1.6h-0.8c-0.3-0.7-0.9-1-1.7-1c-1.1,0-2,0.8-2,2.1c0,1.3,0.8,2.1,2,2.1
		c0.8,0,1.4-0.4,1.7-1h0.8c-0.4,1-1.3,1.6-2.5,1.6c-1.5,0-2.7-1.1-2.7-2.7C142.7,41.1,143.9,39.9,145.4,39.9z"/>
	<path class="st2" d="M150.2,40h3.7v0.6h-1.5v4.8h-0.7v-4.8h-1.5L150.2,40L150.2,40z"/>
	<path class="st2" d="M156.3,40h0.7v5.4h-0.7V40z"/>
	<path class="st2" d="M163.4,40h0.7l-2,5.4h-0.8l-2-5.4h0.8l1.7,4.6L163.4,40z"/>
	<path class="st2" d="M169.4,40.6h-2.2v1.8h2v0.6h-2v1.9h2.2v0.6h-2.9V40h2.9V40.6z"/>
	<path class="st2" d="M176.5,39.2v7h-0.7v-7H176.5z"/>
	<path class="st2" d="M184.8,40c1.3,0,1.9,0.7,1.9,1.6c0,0.7-0.4,1.3-1.3,1.5l1.4,2.3h-0.8l-1.3-2.2h-0.8v2.2H183V40L184.8,40
		L184.8,40z M184.8,40.6h-1v2h1c0.8,0,1.1-0.4,1.1-1C185.9,41,185.6,40.6,184.8,40.6z"/>
	<path class="st2" d="M192.2,40.6H190v1.8h2v0.6h-2v1.9h2.2v0.6h-2.9V40h2.9V40.6z"/>
	<path class="st2" d="M195.5,40v4.8h1.9v0.6h-2.6V40H195.5z"/>
	<path class="st2" d="M199.7,40h0.7v5.4h-0.7V40z"/>
	<path class="st2" d="M206.3,44.2H204l-0.4,1.2h-0.7l2-5.4h0.8l1.9,5.4h-0.7L206.3,44.2z M205.1,40.9l-1,2.7h2L205.1,40.9z"/>
	<path class="st2" d="M211.9,45.4h-2V40h1.9c1.1,0,1.7,0.6,1.7,1.4c0,0.7-0.4,1.1-0.9,1.2c0.6,0.1,1.1,0.7,1.1,1.3
		C213.7,44.7,213,45.4,211.9,45.4z M211.8,40.6h-1.2v1.8h1.2c0.7,0,1-0.3,1-0.9C212.8,40.9,212.5,40.6,211.8,40.6z M211.8,42.9h-1.2
		v1.9h1.2c0.7,0,1.1-0.3,1.1-0.9C213,43.3,212.5,42.9,211.8,42.9z"/>
	<path class="st2" d="M216.9,40v4.8h1.9v0.6h-2.6V40H216.9z"/>
	<path class="st2" d="M224,40.6h-2.2v1.8h2v0.6h-2v1.9h2.2v0.6h-2.9V40h2.9V40.6z"/>
	
		<linearGradient id="SVGID_1_" gradientUnits="userSpaceOnUse" x1="28.3174" y1="30.9823" x2="52.8253" y2="46.1539" gradientTransform="matrix(1 0 0 -1 0 48)">
		<stop  offset="4.049120e-07" style="stop-color:#FE5D7A"/>
		<stop  offset="1" style="stop-color:#FB0157"/>
	</linearGradient>
	<path class="st3" d="M46.4,0H25.7c-1,0-1.9,0.8-1.9,1.9v20.7c0,1,0.8,1.9,1.9,1.9h20.7c1,0,1.9-0.8,1.9-1.9V1.9
		C48.3,0.8,47.5,0,46.4,0z"/>
	
		<linearGradient id="SVGID_2_" gradientUnits="userSpaceOnUse" x1="1.4965" y1="40.6865" x2="14.9738" y2="27.2094" gradientTransform="matrix(1 0 0 -1 0 48)">
		<stop  offset="6.819570e-07" style="stop-color:#1E7CE2"/>
		<stop  offset="1" style="stop-color:#49B3FF"/>
	</linearGradient>
	<path class="st4" d="M16.7,5.8H1.9C0.8,5.8,0,6.7,0,7.7v14.9c0,1,0.8,1.9,1.9,1.9h14.9c1,0,1.9-0.8,1.9-1.9V7.7
		C18.6,6.7,17.8,5.8,16.7,5.8z"/>
	
		<linearGradient id="SVGID_3_" gradientUnits="userSpaceOnUse" x1="16.6578" y1="16.5562" x2="7.6833" y2="7.1093" gradientTransform="matrix(1 0 0 -1 0 48)">
		<stop  offset="0" style="stop-color:#FFCD4B"/>
		<stop  offset="0.7878" style="stop-color:#ED9E17"/>
	</linearGradient>
	<path class="st5" d="M16.7,29.7H9.4c-1,0-1.9,0.8-1.9,1.9v7.4c0,1,0.8,1.9,1.9,1.9h7.4c1,0,1.9-0.8,1.9-1.9v-7.4
		C18.6,30.5,17.8,29.7,16.7,29.7z"/>
	
		<linearGradient id="SVGID_4_" gradientUnits="userSpaceOnUse" x1="24.534" y1="19.3845" x2="40.9602" y2="-0.7962" gradientTransform="matrix(1 0 0 -1 0 48)">
		<stop  offset="1.092200e-06" style="stop-color:#1EED89"/>
		<stop  offset="1" style="stop-color:#0CB75C"/>
	</linearGradient>
	<path class="st6" d="M38.5,29.7H25.7c-1,0-1.9,0.8-1.9,1.9v12.8c0,1,0.8,1.9,1.9,1.9h12.8c1,0,1.9-0.8,1.9-1.9V31.6
		C40.4,30.5,39.5,29.7,38.5,29.7z"/>
</g>
<g class="st0">
	<g class="st7">
		<rect x="4.3" y="1.4" class="st8" width="11.7" height="13.9"/>
		<path class="st9" d="M16,31.4L16,31.4C8.6,30.2,4.5,24.2,4.5,17.7H16V31.4z"/>
		<path class="st9" d="M18.4,31.5L18.4,31.5V17.7h13v0.8C31.2,25.7,25.5,31.4,18.4,31.5"/>
		<path class="st9" d="M24.9,6.8c0-2.1,0.9-4,2.3-5.3h-8.9v13.9h13v-1.1C27.8,13.9,24.9,10.6,24.9,6.8"/>
		<polygon class="st10" points="7.6,5.2 8.9,5.2 7.9,5.9 8.3,4.7 8.6,5.9 		"/>
		<polygon class="st10" points="6.3,6.5 7.5,6.5 6.5,7.2 6.9,6.1 7.3,7.2 		"/>
		<polygon class="st10" points="6.3,10.4 7.5,10.4 6.5,11.1 6.9,9.9 7.3,11.1 		"/>
		<polygon class="st10" points="12.8,6.5 14,6.5 13,7.2 13.4,6.1 13.8,7.2 		"/>
		<polygon class="st10" points="12.8,10.4 14,10.4 13,11.1 13.4,9.9 13.8,11.1 		"/>
		<polygon class="st10" points="5.7,8.5 6.9,8.5 5.9,9.2 6.3,8.1 6.6,9.2 		"/>
		<polygon class="st10" points="13.3,8.5 14.5,8.5 13.5,9.2 13.9,8.1 14.2,9.2 		"/>
		<polygon class="st10" points="7.6,11.7 8.9,11.7 7.9,12.5 8.3,11.3 8.6,12.5 		"/>
		<polygon class="st10" points="11.4,5.2 12.6,5.2 11.6,5.9 12,4.7 12.4,5.9 		"/>
		<polygon class="st10" points="11.4,11.7 12.6,11.7 11.6,12.5 12,11.3 12.4,12.5 		"/>
		<polygon class="st10" points="9.5,4.7 10.7,4.7 9.8,5.5 10.1,4.3 10.5,5.5 		"/>
		<polygon class="st10" points="9.5,12.3 10.7,12.3 9.8,13 10.1,11.9 10.5,13 		"/>
		<path class="st11" d="M40.4,4.5c-0.2-0.4-0.5-0.7-0.9-0.9c-0.4-0.2-0.8-0.3-1.4-0.3c-0.9,0-1.6,0.3-2.2,0.9
			c-0.5,0.6-0.8,1.4-0.8,2.4c0,1,0.3,1.9,0.8,2.5s1.4,0.9,2.4,0.9c0.7,0,1.3-0.2,1.8-0.5c0.5-0.3,0.8-0.8,1-1.5h-3.5V5.9h6.1v2.6
			c-0.2,0.7-0.6,1.4-1,2c-0.5,0.6-1.1,1.1-1.9,1.4s-1.6,0.6-2.6,0.6c-1.1,0-2.2-0.3-3-0.7c-0.9-0.5-1.6-1.2-2.1-2.1
			c-0.5-0.9-0.7-1.9-0.7-3s0.3-2.2,0.7-3c0.5-0.9,1.2-1.6,2.1-2.1c0.9-0.5,1.9-0.7,3-0.7c1.4,0,2.5,0.3,3.5,1
			c0.9,0.7,1.6,1.6,1.9,2.8L40.4,4.5L40.4,4.5z"/>
		<polygon class="st11" points="48.4,4 48.4,5.8 52.1,5.8 52.1,8 48.4,8 48.4,9.9 52.6,9.9 52.6,12.2 45.7,12.2 45.7,2.1 52.6,2.1 
			52.6,4 		"/>
		<polygon class="st11" points="63,12.6 60.6,8.9 58.4,12.6 55.1,12.6 58.9,6.5 55,0.6 58.4,0.6 60.8,4.2 63,0.6 66.3,0.6 62.5,6.7 
			66.4,12.6 		"/>
		<path class="st11" d="M36.8,18.5c0.3,0.3,0.4,0.6,0.4,1c0,0.5-0.2,0.9-0.5,1.2c-0.3,0.3-0.8,0.5-1.4,0.5h-1.9v-6.1h1.9
			c0.6,0,1.1,0.1,1.4,0.4c0.3,0.3,0.5,0.7,0.5,1.1c0,0.4-0.1,0.7-0.3,1c-0.2,0.3-0.5,0.4-0.8,0.5C36.2,18.1,36.6,18.3,36.8,18.5z
			 M33.7,17.9h1.5c0.5,0,0.8-0.1,1.1-0.3c0.3-0.2,0.4-0.5,0.4-0.9c0-0.4-0.1-0.7-0.4-0.9c-0.3-0.2-0.6-0.3-1.1-0.3h-1.5L33.7,17.9
			L33.7,17.9z M36.4,20.5c0.3-0.2,0.4-0.6,0.4-1c0-0.4-0.1-0.7-0.4-1s-0.7-0.4-1.2-0.4h-1.5v2.7h1.5C35.7,20.8,36.1,20.7,36.4,20.5z
			"/>
		<path class="st11" d="M42.3,16.5v4.7h-0.4v-1.2c-0.1,0.4-0.3,0.8-0.7,1c-0.3,0.2-0.7,0.3-1.1,0.3c-0.5,0-1-0.2-1.4-0.5
			c-0.3-0.3-0.5-0.8-0.5-1.6v-2.7h0.4v2.7c0,0.6,0.1,1,0.4,1.3s0.7,0.5,1.2,0.5c0.5,0,0.9-0.2,1.2-0.5c0.3-0.3,0.5-0.8,0.5-1.5v-2.5
			L42.3,16.5L42.3,16.5z"/>
		<path class="st11" d="M46.3,16.8c0.3,0.3,0.5,0.6,0.5,1.1h-0.4c0-0.3-0.2-0.6-0.4-0.8c-0.2-0.2-0.5-0.3-1-0.3
			c-0.3,0-0.6,0.1-0.8,0.3c-0.2,0.2-0.3,0.4-0.3,0.7c0,0.2,0.1,0.4,0.2,0.5c0.1,0.1,0.3,0.2,0.4,0.3c0.2,0.1,0.4,0.1,0.7,0.2
			c0.3,0.1,0.6,0.1,0.8,0.2c0.2,0.1,0.4,0.2,0.5,0.4c0.1,0.2,0.2,0.4,0.2,0.7c0,0.4-0.1,0.7-0.4,0.9c-0.3,0.2-0.6,0.3-1,0.3
			c-0.5,0-0.9-0.1-1.3-0.4s-0.5-0.6-0.6-1.1h0.4c0,0.3,0.2,0.6,0.4,0.8s0.6,0.3,1,0.3c0.3,0,0.6-0.1,0.8-0.3
			c0.2-0.2,0.3-0.4,0.3-0.7c0-0.2-0.1-0.4-0.2-0.5c-0.1-0.1-0.3-0.2-0.5-0.3c-0.2-0.1-0.4-0.1-0.7-0.2c-0.3-0.1-0.6-0.2-0.8-0.2
			c-0.2-0.1-0.4-0.2-0.5-0.4c-0.1-0.2-0.2-0.4-0.2-0.7c0-0.4,0.1-0.7,0.4-0.9c0.3-0.2,0.6-0.3,1.1-0.3C45.6,16.4,46,16.5,46.3,16.8z
			"/>
		<path class="st11" d="M48,14.8c0.1-0.1,0.1-0.1,0.2-0.1c0.1,0,0.2,0,0.3,0.1c0.1,0.1,0.1,0.1,0.1,0.2c0,0.1,0,0.2-0.1,0.2
			c-0.1,0.1-0.1,0.1-0.3,0.1c-0.1,0-0.2,0-0.2-0.1C48,15.2,48,15.1,48,15.1C47.9,14.9,48,14.9,48,14.8z M48.5,16.5v4.7h-0.4v-4.7
			H48.5z"/>
		<path class="st11" d="M53.5,16.9c0.3,0.3,0.5,0.8,0.5,1.5v2.7h-0.4v-2.7c0-0.6-0.1-1-0.4-1.3s-0.7-0.5-1.2-0.5
			c-0.5,0-0.9,0.2-1.2,0.5c-0.3,0.3-0.5,0.8-0.5,1.5v2.5h-0.4v-4.7h0.4v1.2c0.1-0.5,0.3-0.8,0.7-1c0.3-0.2,0.7-0.3,1.1-0.3
			C52.7,16.4,53.1,16.6,53.5,16.9z"/>
		<path class="st11" d="M58.7,20.5c0.3-0.2,0.5-0.6,0.6-1h0.4c-0.1,0.5-0.3,0.9-0.7,1.2c-0.4,0.3-0.9,0.5-1.5,0.5
			c-0.5,0-0.8-0.1-1.2-0.3c-0.3-0.2-0.6-0.5-0.8-0.8c-0.2-0.4-0.3-0.8-0.3-1.3c0-0.5,0.1-0.9,0.3-1.3s0.5-0.7,0.8-0.8
			c0.3-0.2,0.7-0.3,1.2-0.3c0.5,0,0.8,0.1,1.2,0.3s0.6,0.5,0.8,0.8c0.2,0.3,0.3,0.7,0.3,1c0,0.1,0,0.3-0.1,0.5h-4
			c0,0.5,0.1,0.8,0.3,1.1c0.2,0.3,0.4,0.5,0.7,0.7s0.6,0.2,0.9,0.2C57.9,20.9,58.3,20.8,58.7,20.5z M56.6,16.9
			c-0.3,0.1-0.5,0.4-0.7,0.7c-0.2,0.3-0.3,0.7-0.3,1.1h3.7c0-0.4-0.1-0.8-0.2-1.1c-0.2-0.3-0.4-0.5-0.7-0.7s-0.6-0.2-0.9-0.2
			C57.2,16.7,56.8,16.8,56.6,16.9z"/>
		<path class="st11" d="M63.4,16.8c0.3,0.3,0.5,0.6,0.5,1.1h-0.4c0-0.3-0.2-0.6-0.4-0.8c-0.2-0.2-0.5-0.3-1-0.3
			c-0.3,0-0.6,0.1-0.8,0.3c-0.2,0.2-0.3,0.4-0.3,0.7c0,0.2,0.1,0.4,0.2,0.5c0.1,0.1,0.3,0.2,0.4,0.3c0.2,0.1,0.4,0.1,0.7,0.2
			c0.3,0.1,0.6,0.1,0.8,0.2c0.2,0.1,0.4,0.2,0.5,0.4c0.1,0.2,0.2,0.4,0.2,0.7c0,0.4-0.1,0.7-0.4,0.9c-0.3,0.2-0.6,0.3-1,0.3
			c-0.5,0-0.9-0.1-1.3-0.4s-0.5-0.6-0.6-1.1h0.4c0,0.3,0.2,0.6,0.4,0.8c0.3,0.2,0.6,0.3,1,0.3c0.3,0,0.6-0.1,0.8-0.3
			c0.2-0.2,0.3-0.4,0.3-0.7c0-0.2-0.1-0.4-0.2-0.5c-0.1-0.1-0.3-0.2-0.5-0.3c-0.2-0.1-0.4-0.1-0.7-0.2c-0.3-0.1-0.6-0.2-0.8-0.2
			c-0.2-0.1-0.4-0.2-0.5-0.4c-0.1-0.2-0.2-0.4-0.2-0.7c0-0.4,0.1-0.7,0.4-0.9c0.3-0.2,0.6-0.3,1.1-0.3
			C62.8,16.4,63.2,16.5,63.4,16.8z"/>
		<path class="st11" d="M67.8,16.8c0.3,0.3,0.5,0.6,0.5,1.1H68c0-0.3-0.2-0.6-0.4-0.8s-0.5-0.3-1-0.3c-0.3,0-0.6,0.1-0.8,0.3
			c-0.2,0.2-0.3,0.4-0.3,0.7c0,0.2,0.1,0.4,0.2,0.5c0.1,0.1,0.3,0.2,0.4,0.3c0.2,0.1,0.4,0.1,0.7,0.2c0.3,0.1,0.6,0.1,0.8,0.2
			c0.2,0.1,0.4,0.2,0.5,0.4c0.1,0.2,0.2,0.4,0.2,0.7c0,0.4-0.1,0.7-0.4,0.9c-0.3,0.2-0.6,0.3-1,0.3c-0.5,0-0.9-0.1-1.3-0.4
			s-0.5-0.6-0.6-1.1h0.4c0,0.3,0.2,0.6,0.4,0.8c0.3,0.2,0.6,0.3,1,0.3c0.3,0,0.6-0.1,0.8-0.3S68,20.3,68,20c0-0.2-0.1-0.4-0.2-0.5
			c-0.1-0.1-0.3-0.2-0.5-0.3c-0.2-0.1-0.4-0.1-0.7-0.2c-0.3-0.1-0.6-0.2-0.8-0.2c-0.2-0.1-0.4-0.2-0.5-0.4c-0.1-0.2-0.2-0.4-0.2-0.7
			c0-0.4,0.1-0.7,0.4-0.9c0.3-0.2,0.6-0.3,1.1-0.3C67.1,16.4,67.5,16.5,67.8,16.8z"/>
		<path class="st11" d="M75.5,20.4c-0.1,0.2-0.3,0.4-0.6,0.6c-0.3,0.1-0.6,0.2-1,0.2c-0.4,0-0.7-0.1-1-0.2c-0.3-0.1-0.5-0.3-0.7-0.6
			c-0.2-0.3-0.3-0.5-0.3-0.8h0.4c0,0.2,0.1,0.4,0.2,0.6c0.1,0.2,0.3,0.4,0.5,0.5c0.2,0.1,0.5,0.2,0.8,0.2c0.4,0,0.8-0.1,1-0.4
			c0.2-0.2,0.3-0.5,0.3-0.9c0-0.3-0.1-0.6-0.2-0.7c-0.1-0.2-0.3-0.3-0.5-0.4c-0.2-0.1-0.5-0.2-0.9-0.3c-0.4-0.1-0.7-0.2-0.9-0.3
			c-0.2-0.1-0.4-0.3-0.6-0.5c-0.2-0.2-0.2-0.5-0.2-0.9c0-0.5,0.1-0.8,0.5-1.1S73,15,73.5,15c0.5,0,1,0.1,1.3,0.4s0.5,0.6,0.6,1H75
			c-0.1-0.3-0.2-0.5-0.5-0.7c-0.3-0.2-0.6-0.3-1-0.3c-0.4,0-0.7,0.1-1,0.3c-0.2,0.2-0.4,0.5-0.4,0.9c0,0.3,0.1,0.5,0.2,0.7
			c0.1,0.2,0.3,0.3,0.5,0.4c0.2,0.1,0.5,0.2,0.8,0.3c0.4,0.1,0.7,0.2,0.9,0.3c0.2,0.1,0.4,0.3,0.6,0.5c0.2,0.2,0.3,0.5,0.3,0.9
			C75.6,19.9,75.6,20.2,75.5,20.4z"/>
		<path class="st11" d="M80.4,16.9c0.4,0.3,0.6,0.7,0.7,1.2h-0.4c-0.1-0.4-0.3-0.7-0.6-1c-0.3-0.3-0.7-0.4-1.2-0.4
			c-0.3,0-0.7,0.1-0.9,0.2s-0.5,0.4-0.7,0.7c-0.2,0.3-0.3,0.7-0.3,1.2c0,0.5,0.1,0.8,0.3,1.2s0.4,0.5,0.7,0.7
			c0.3,0.1,0.6,0.2,0.9,0.2c0.5,0,0.9-0.1,1.2-0.4c0.3-0.3,0.5-0.6,0.6-1h0.4c-0.1,0.5-0.3,0.9-0.7,1.2c-0.4,0.3-0.9,0.5-1.5,0.5
			c-0.5,0-0.8-0.1-1.2-0.3c-0.3-0.2-0.6-0.5-0.8-0.8c-0.2-0.4-0.3-0.8-0.3-1.3c0-0.5,0.1-0.9,0.3-1.3c0.2-0.4,0.5-0.7,0.8-0.8
			c0.3-0.2,0.7-0.3,1.2-0.3C79.6,16.4,80,16.6,80.4,16.9z"/>
		<path class="st11" d="M85.9,16.9c0.3,0.3,0.5,0.8,0.5,1.5v2.7H86v-2.7c0-0.6-0.1-1-0.4-1.3s-0.7-0.5-1.2-0.5
			c-0.5,0-0.9,0.2-1.2,0.5c-0.3,0.3-0.5,0.8-0.5,1.5v2.5h-0.4v-6.4h0.4v2.9c0.1-0.5,0.3-0.8,0.7-1c0.3-0.2,0.7-0.3,1.1-0.3
			C85.1,16.4,85.6,16.6,85.9,16.9z"/>
		<path class="st11" d="M91.2,16.7c0.3,0.2,0.6,0.5,0.8,0.8s0.3,0.8,0.3,1.3c0,0.5-0.1,0.9-0.3,1.3c-0.2,0.4-0.5,0.7-0.8,0.8
			c-0.3,0.2-0.8,0.3-1.2,0.3c-0.5,0-0.8-0.1-1.2-0.3c-0.3-0.2-0.6-0.5-0.8-0.8s-0.3-0.8-0.3-1.3c0-0.5,0.1-0.9,0.3-1.3
			c0.2-0.4,0.5-0.7,0.8-0.8c0.3-0.2,0.7-0.3,1.2-0.3S90.8,16.5,91.2,16.7z M89,17c-0.3,0.1-0.5,0.4-0.7,0.7C88.1,18,88,18.3,88,18.8
			c0,0.5,0.1,0.8,0.3,1.2c0.2,0.3,0.4,0.5,0.7,0.7c0.3,0.1,0.6,0.2,1,0.2c0.3,0,0.7-0.1,1-0.2c0.3-0.1,0.5-0.4,0.7-0.7
			c0.2-0.3,0.3-0.7,0.3-1.2c0-0.5-0.1-0.8-0.3-1.2c-0.2-0.3-0.4-0.5-0.7-0.7s-0.6-0.2-1-0.2C89.6,16.8,89.3,16.8,89,17z"/>
		<path class="st11" d="M96.9,16.7c0.3,0.2,0.6,0.5,0.8,0.8c0.2,0.4,0.3,0.8,0.3,1.3c0,0.5-0.1,0.9-0.3,1.3
			c-0.2,0.4-0.5,0.7-0.8,0.8c-0.3,0.2-0.8,0.3-1.2,0.3c-0.5,0-0.8-0.1-1.2-0.3c-0.3-0.2-0.6-0.5-0.8-0.8c-0.2-0.4-0.3-0.8-0.3-1.3
			c0-0.5,0.1-0.9,0.3-1.3c0.2-0.4,0.5-0.7,0.8-0.8c0.3-0.2,0.7-0.3,1.2-0.3C96.1,16.4,96.5,16.5,96.9,16.7z M94.7,17
			c-0.3,0.1-0.5,0.4-0.7,0.7c-0.2,0.3-0.3,0.7-0.3,1.2c0,0.5,0.1,0.8,0.3,1.2c0.2,0.3,0.4,0.5,0.7,0.7c0.3,0.1,0.6,0.2,1,0.2
			c0.3,0,0.7-0.1,1-0.2c0.3-0.1,0.5-0.4,0.7-0.7c0.2-0.3,0.3-0.7,0.3-1.2c0-0.5-0.1-0.8-0.3-1.2c-0.2-0.3-0.4-0.5-0.7-0.7
			s-0.6-0.2-1-0.2C95.3,16.8,95,16.8,94.7,17z"/>
		<path class="st11" d="M99.6,14.8v6.4h-0.4v-6.4H99.6z"/>
		<path class="st11" d="M36.5,24.4v0.9h-2.4v1.5H36v0.9h-1.9v2.4H33v-5.7H36.5z"/>
		<path class="st11" d="M40.2,30.2L38.9,28h-0.5v2.2h-1.1v-5.7h2.2c0.7,0,1.2,0.2,1.5,0.5s0.5,0.7,0.5,1.3c0,0.4-0.1,0.8-0.4,1.1
			c-0.2,0.3-0.6,0.5-1,0.6l1.4,2.3L40.2,30.2L40.2,30.2z M38.4,27.2h0.9c0.7,0,1-0.3,1-0.8c0-0.3-0.1-0.5-0.2-0.7
			c-0.2-0.1-0.4-0.2-0.7-0.2h-0.9V27.2z"/>
		<path class="st11" d="M45.7,29h-2.3L43,30.1h-1.2l2.1-5.6h1.3l2.1,5.6h-1.2L45.7,29z M45.4,28.2l-0.8-2.4l-0.8,2.4H45.4z"/>
		<path class="st11" d="M52.7,30.2h-1.1L49,26.3v3.9h-1.1v-5.7H49l2.5,3.9v-3.9h1.1V30.2z"/>
		<path class="st11" d="M58.1,25c0.5,0.4,0.8,0.8,0.9,1.5h-1.2c-0.1-0.3-0.3-0.5-0.6-0.7c-0.3-0.2-0.6-0.3-0.9-0.3
			c-0.3,0-0.6,0.1-0.8,0.2c-0.3,0.1-0.4,0.4-0.6,0.7c-0.1,0.3-0.2,0.6-0.2,1c0,0.4,0.1,0.7,0.2,1c0.1,0.3,0.3,0.5,0.6,0.7
			c0.3,0.2,0.5,0.2,0.8,0.2c0.4,0,0.7-0.1,0.9-0.3c0.3-0.2,0.5-0.4,0.6-0.7H59c-0.1,0.6-0.5,1.1-0.9,1.5c-0.5,0.4-1,0.5-1.8,0.5
			c-0.5,0-1-0.1-1.4-0.4c-0.4-0.3-0.7-0.6-1-1c-0.2-0.5-0.3-0.9-0.3-1.5s0.1-1.1,0.3-1.5c0.2-0.5,0.5-0.8,1-1
			c0.4-0.3,0.9-0.4,1.4-0.4C57,24.4,57.6,24.6,58.1,25z"/>
		<path class="st11" d="M61,25.4v1.5h2v0.9h-2v1.5h2.3v0.9h-3.4v-5.7h3.4v0.9H61z"/>
		<path class="st12" d="M10.7,40.1c0.3,0.2,0.4,0.5,0.5,0.8h-0.6c-0.1-0.2-0.2-0.3-0.3-0.4c-0.2-0.1-0.3-0.2-0.6-0.2
			c-0.2,0-0.4,0.1-0.5,0.1c-0.2,0.1-0.3,0.2-0.4,0.4s-0.1,0.4-0.1,0.6c0,0.3,0.1,0.5,0.1,0.7c0.1,0.2,0.2,0.3,0.4,0.4
			c0.2,0.1,0.4,0.1,0.6,0.1c0.3,0,0.5-0.1,0.7-0.3s0.3-0.4,0.3-0.7H9.6v-0.4h1.6v0.5c0,0.2-0.1,0.5-0.3,0.7
			c-0.1,0.2-0.3,0.3-0.5,0.5c-0.2,0.1-0.5,0.2-0.8,0.2c-0.3,0-0.6-0.1-0.8-0.2c-0.3-0.1-0.4-0.3-0.6-0.6c-0.1-0.3-0.2-0.5-0.2-0.8
			s0.1-0.6,0.2-0.8c0.1-0.3,0.3-0.5,0.6-0.6s0.5-0.2,0.8-0.2C10.1,39.8,10.4,39.9,10.7,40.1z"/>
		<path class="st12" d="M12.3,40.3v1h1.2v0.4h-1.2v1h1.3v0.4h-1.9v-3.3h1.9v0.4H12.3z"/>
		<path class="st12" d="M16,43.1l-0.8-1.2l-0.7,1.2h-0.6l1-1.7l-1-1.6h0.6l0.8,1.2l0.7-1.2h0.6l-1,1.6l1,1.6H16z"/>
		<path class="st12" d="M18.6,40.3v1h1.2v0.4h-1.2v1h1.3v0.4h-1.9v-3.3h1.9v0.4H18.6z"/>
		<path class="st12" d="M22.9,40.1c0.3,0.2,0.5,0.5,0.5,0.8h-0.6c-0.1-0.2-0.2-0.3-0.4-0.5c-0.2-0.1-0.4-0.2-0.6-0.2
			c-0.2,0-0.4,0.1-0.5,0.1c-0.1,0.1-0.3,0.2-0.4,0.4s-0.1,0.4-0.1,0.6c0,0.2,0.1,0.5,0.1,0.6s0.2,0.3,0.4,0.4
			c0.1,0.1,0.3,0.1,0.5,0.1c0.3,0,0.5-0.1,0.6-0.2c0.2-0.1,0.3-0.3,0.4-0.5h0.6c-0.1,0.3-0.3,0.6-0.5,0.8c-0.3,0.2-0.6,0.3-1,0.3
			c-0.3,0-0.6-0.1-0.8-0.2c-0.2-0.1-0.4-0.3-0.5-0.6c-0.1-0.3-0.2-0.5-0.2-0.8s0.1-0.6,0.2-0.8c0.1-0.3,0.3-0.5,0.5-0.6
			c0.2-0.1,0.5-0.2,0.8-0.2C22.3,39.8,22.7,39.9,22.9,40.1z"/>
		<path class="st12" d="M26.3,40c0.3,0.1,0.4,0.3,0.6,0.6c0.1,0.3,0.2,0.5,0.2,0.8S27,42,26.9,42.3s-0.3,0.5-0.6,0.6
			c-0.3,0.1-0.5,0.2-0.8,0.2c-0.3,0-0.6-0.1-0.8-0.2c-0.3-0.1-0.4-0.3-0.6-0.6c-0.1-0.3-0.2-0.5-0.2-0.8s0.1-0.6,0.2-0.8
			c0.1-0.3,0.3-0.5,0.6-0.6c0.3-0.1,0.5-0.2,0.8-0.2C25.8,39.8,26.1,39.9,26.3,40z M24.9,40.4c-0.2,0.1-0.3,0.2-0.4,0.4
			c-0.1,0.2-0.1,0.4-0.1,0.6c0,0.2,0.1,0.5,0.1,0.6c0.1,0.2,0.2,0.3,0.4,0.4c0.2,0.1,0.3,0.1,0.6,0.1c0.2,0,0.4-0.1,0.5-0.1
			c0.2-0.1,0.3-0.2,0.4-0.4c0.1-0.2,0.1-0.4,0.1-0.6c0-0.2-0.1-0.5-0.1-0.6s-0.2-0.3-0.4-0.4c-0.2-0.1-0.3-0.1-0.5-0.1
			C25.3,40.3,25.1,40.3,24.9,40.4z"/>
		<path class="st12" d="M28.2,42.7h1.1v0.4h-1.6v-3.3h0.5L28.2,42.7L28.2,42.7z"/>
		<path class="st12" d="M30.2,40.3v1h1.2v0.4h-1.2v1h1.3v0.4h-1.9v-3.3h1.9v0.4H30.2z"/>
		<path class="st12" d="M35.7,42.3c-0.1,0.3-0.3,0.4-0.6,0.6s-0.6,0.2-0.9,0.2h-1.1v-3.3h1.1c0.4,0,0.7,0.1,0.9,0.2
			c0.3,0.1,0.5,0.3,0.6,0.6s0.2,0.5,0.2,0.8C35.9,41.8,35.9,42.1,35.7,42.3z M35.1,42.3c0.2-0.2,0.3-0.5,0.3-0.8
			c0-0.4-0.1-0.7-0.3-0.8c-0.2-0.2-0.5-0.3-0.9-0.3h-0.5v2.3h0.5C34.6,42.6,34.9,42.5,35.1,42.3z"/>
		<path class="st12" d="M37,40.3v1h1.2v0.4H37v1h1.3v0.4h-1.9v-3.3h1.9v0.4H37z"/>
		<path class="st12" d="M43.3,39.9v3.2h-0.5v-2.4l-0.9,2.4h-0.5l-0.9-2.4v2.4h-0.5v-3.2h0.6l1,2.5l1-2.5H43.3z"/>
		<path class="st12" d="M45.9,42.4h-1.4l-0.3,0.7h-0.6l1.2-3.2h0.6l1.2,3.2h-0.6L45.9,42.4z M45.7,42l-0.5-1.5L44.6,42H45.7z"/>
		<path class="st12" d="M49.7,43.1h-0.5l-1.6-2.4v2.4h-0.5v-3.3h0.5l1.6,2.4v-2.4h0.5V43.1z"/>
		<path class="st12" d="M52.3,42.4h-1.4l-0.3,0.7h-0.6l1.2-3.2h0.6l1.2,3.2h-0.6L52.3,42.4z M52.1,42l-0.5-1.5L51.1,42H52.1z"/>
		<path class="st12" d="M56,40.1c0.3,0.2,0.4,0.5,0.5,0.8h-0.6c-0.1-0.2-0.2-0.3-0.3-0.4c-0.2-0.1-0.3-0.2-0.6-0.2
			c-0.2,0-0.4,0.1-0.5,0.1c-0.2,0.1-0.3,0.2-0.4,0.4C54,41,54,41.2,54,41.5c0,0.3,0.1,0.5,0.1,0.7c0.1,0.2,0.2,0.3,0.4,0.4
			c0.2,0.1,0.4,0.1,0.6,0.1c0.3,0,0.5-0.1,0.7-0.3s0.3-0.4,0.3-0.7h-1.2v-0.4h1.6v0.5c0,0.2-0.1,0.5-0.3,0.7
			c-0.1,0.2-0.3,0.3-0.5,0.5c-0.2,0.1-0.5,0.2-0.8,0.2c-0.3,0-0.6-0.1-0.8-0.2c-0.3-0.1-0.4-0.3-0.6-0.6c-0.1-0.3-0.2-0.5-0.2-0.8
			s0.1-0.6,0.2-0.8c0.1-0.3,0.3-0.5,0.6-0.6c0.3-0.1,0.5-0.2,0.8-0.2C55.4,39.8,55.7,39.9,56,40.1z"/>
		<path class="st12" d="M57.6,40.3v1h1.2v0.4h-1.2v1h1.3v0.4H57v-3.3h1.9v0.4H57.6z"/>
		<path class="st12" d="M62.8,39.9v3.2h-0.5v-2.4l-0.9,2.4h-0.5L60,40.7v2.4h-0.5v-3.2H60l1.1,2.5l1-2.5H62.8z"/>
		<path class="st12" d="M64,40.3v1h1.2v0.4H64v1h1.3v0.4h-1.9v-3.3h1.9v0.4H64z"/>
		<path class="st12" d="M68.5,43.1h-0.5l-1.6-2.4v2.4h-0.5v-3.3h0.5l1.6,2.4v-2.4h0.5V43.1z"/>
		<path class="st12" d="M71.2,39.8v0.4h-0.9v2.8h-0.5v-2.8h-0.9v-0.4H71.2z"/>
		<path class="st12" d="M74.2,41.2v0.5h-1.9v-0.5H74.2z"/>
		<path class="st12" d="M78,39.8v0.4h-1.4v1h1.2v0.4h-1.2v1.4h-0.5v-3.3H78z"/>
		<path class="st12" d="M80.2,43.1l-0.8-1.3H79v1.3h-0.5v-3.3h1.2c0.4,0,0.7,0.1,0.8,0.3c0.2,0.2,0.3,0.4,0.3,0.7
			c0,0.3-0.1,0.5-0.2,0.6c-0.1,0.2-0.3,0.3-0.6,0.3l0.8,1.3L80.2,43.1L80.2,43.1z M79,41.4h0.6c0.4,0,0.6-0.2,0.6-0.6
			c0-0.2-0.1-0.3-0.1-0.4c-0.1-0.1-0.3-0.1-0.5-0.1H79V41.4z"/>
		<path class="st12" d="M83.2,42.4h-1.4l-0.3,0.7H81l1.2-3.2h0.6l1.2,3.2h-0.6L83.2,42.4z M83,42l-0.5-1.5L81.9,42H83z"/>
		<path class="st12" d="M87,43.1h-0.5l-1.6-2.4v2.4h-0.5v-3.3h0.5l1.6,2.4v-2.4H87V43.1z"/>
		<path class="st12" d="M90.1,40.1c0.3,0.2,0.5,0.5,0.5,0.8h-0.6c-0.1-0.2-0.2-0.3-0.4-0.5c-0.2-0.1-0.4-0.2-0.6-0.2
			c-0.2,0-0.4,0.1-0.5,0.1c-0.1,0.1-0.3,0.2-0.4,0.4c-0.1,0.2-0.1,0.4-0.1,0.6c0,0.2,0.1,0.5,0.1,0.6c0.1,0.2,0.2,0.3,0.4,0.4
			c0.1,0.1,0.3,0.1,0.5,0.1c0.3,0,0.5-0.1,0.6-0.2c0.2-0.1,0.3-0.3,0.4-0.5h0.6c-0.1,0.3-0.3,0.6-0.5,0.8c-0.3,0.2-0.6,0.3-1,0.3
			c-0.3,0-0.6-0.1-0.8-0.2s-0.4-0.3-0.5-0.6c-0.1-0.3-0.2-0.5-0.2-0.8s0.1-0.6,0.2-0.8c0.1-0.3,0.3-0.5,0.5-0.6
			c0.2-0.1,0.5-0.2,0.8-0.2C89.5,39.8,89.8,39.9,90.1,40.1z"/>
		<path class="st12" d="M91.7,40.3v1h1.2v0.4h-1.2v1H93v0.4h-1.9v-3.3H93v0.4H91.7z"/>
		<rect x="45.7" y="0.5" class="st8" width="7" height="1.3"/>
		<rect y="36.2" class="st12" width="103.6" height="0.1"/>
		<rect y="46.4" class="st12" width="103.6" height="0.1"/>
	</g>
</g>
<g class="st0">
	<g class="st7">
		<path class="st13" d="M21.6,9.5h-5.8v0.8c2,0.2,2.1,0.6,1.8,2.1c-0.4,1.4-1.3,5.2-2.3,8.3h-0.1c-1.4-3.6-2.8-7.3-4.2-11H9.8
			c-1.2,3.8-2.4,7.5-3.6,10.9h0C5.3,17.9,0.8,3.5,0,0.6l0,0v10.9c1.7,5.6,3.6,11.6,4.4,14.1h1.3c1.2-3.6,2.5-7.2,3.8-10.9h0
			c1.4,3.7,2.7,7.3,4,10.9h1.3c2.1-6.8,3.5-11,4.1-12.6c0.7-2.1,1.1-2.4,2.7-2.7L21.6,9.5L21.6,9.5z M35.1,21.1
			c-0.4,1.1-0.9,1.9-1.4,2.4c-0.6,0.7-1.5,0.8-2.7,0.8c-0.9,0-1.8,0-2.3-0.3c-0.5-0.2-0.6-0.8-0.6-2v-4.1h1.7c2.1,0,2.4,0.1,2.7,1.8
			h0.9v-4.9h-0.9c-0.3,1.7-0.7,1.8-2.7,1.8h-1.7v-5.2c0-0.8,0-0.8,1-0.8h1.2c1.3,0,2,0.2,2.4,0.6c0.4,0.4,0.8,1.3,1,2.2l0.9-0.1
			c-0.1-1.6-0.2-3.3-0.3-3.7H22.8v0.8c1.8,0.1,2,0.3,2,2.4v9.3c0,2.1-0.3,2.2-2.4,2.4v0.8H35c0.2-0.7,0.7-2.9,0.9-4.1L35.1,21.1z
			 M47.1,13.3c-0.2-1.5-0.4-2.6-0.4-3.5c-0.4-0.1-1.8-0.7-3.5-0.7c-3.4,0-5.6,2.1-5.6,4.8c0,2.3,1.7,3.6,4.3,4.9
			c1.8,0.9,2.9,1.8,2.9,3.3c0,1.6-1,2.6-2.5,2.6c-2.3,0-3.8-2.9-4.3-4.4l-0.9,0.3c0.2,1.5,0.5,3.6,0.7,4.2c0.3,0.1,0.8,0.4,1.5,0.6
			c0.7,0.2,1.6,0.4,2.5,0.4c3.6,0,6-2.2,6-5c0-2.4-1.8-3.8-4.4-5c-2.2-1.1-3-1.8-3-3.2c0-1.4,1-2.4,2.4-2.4c2,0,2.9,1.8,3.4,3.4
			L47.1,13.3z M63.7,13.8c-0.1-1.5-0.3-3.8-0.3-4.8h-0.6c-0.4,0.4-0.7,0.6-1.5,0.6H51.4c-0.7,0-1,0-1.4-0.6h-0.6
			c0,1.2-0.2,3.1-0.3,4.9H50c0.3-1.2,0.7-2.1,1.1-2.5c0.4-0.4,0.7-0.7,3-0.7h0.8v11.5c0,2.1-0.3,2.2-2.3,2.4v0.8h8v-0.8
			c-2.2-0.2-2.5-0.3-2.5-2.4V10.7h1.1c1.6,0,2.2,0.2,2.6,0.6c0.4,0.5,0.8,1.3,1.1,2.6L63.7,13.8z M77.3,13.3C77.1,11.9,77,10,77,9.5
			H65.3v0.9c1.8,0.2,2.1,0.3,2.1,2.5v8.8c0,2.4-0.3,2.5-2.1,2.7v0.8H73v-0.8c-2.2-0.2-2.4-0.3-2.4-2.7v-3.7h2c2.2,0,2.5,0.2,2.7,1.8
			h0.9V15h-0.9c-0.3,1.6-0.5,1.8-2.7,1.8h-2v-5.3c0-0.8,0.1-0.9,1-0.9h1.2c1.4,0,2.1,0.2,2.5,0.7c0.4,0.4,0.8,1.2,1,2.2L77.3,13.3z
			 M87.9,9.1c-5.7,0-8.8,4-8.8,8.3c0,4.7,3.6,8.3,8.5,8.3c4.8,0,8.7-3.2,8.7-8.5C96.3,12.5,92.5,9.1,87.9,9.1L87.9,9.1z M87.5,10.2
			c3,0,5.1,2.9,5.1,7.7c0,4.5-2.1,6.7-4.5,6.7c-3.3,0-5.3-3.5-5.3-7.6C82.8,12.8,84.9,10.2,87.5,10.2L87.5,10.2z M113.2,24.8
			c-0.6-0.2-0.9-0.4-1.5-1c-0.5-0.5-1-1.3-1.9-2.6c-0.7-1.1-1.6-2.7-2-3.4c1.6-0.7,3-1.8,3-4c0-1.5-0.7-2.6-1.6-3.3
			c-1-0.7-2.2-0.9-4.5-0.9H98v0.8c1.8,0.1,2.1,0.4,2.1,2.4v9.3c0,2-0.3,2.2-2.2,2.4v0.8h7.4v-0.8c-1.8-0.2-2.1-0.4-2.1-2.4v-3.5h0.5
			c0.8,0,1.2,0.3,1.7,1c0.7,1.3,1.4,2.6,2,3.6c1,1.5,1.9,2.2,5.1,2.4c0.3,0,0.6,0,0.7,0L113.2,24.8z M103.2,17.6v-5.9
			c0-0.5,0-0.7,0.2-0.9c0.2-0.1,0.5-0.3,1.2-0.3c1.4,0,2.9,0.9,2.9,3.6c0,1.2-0.4,2.2-1.2,2.9c-0.5,0.5-1.4,0.7-2.5,0.7L103.2,17.6
			L103.2,17.6z M114.3,9.5v0.8c1.8,0.2,2,0.3,2,2.4v9.3c0,2.1-0.3,2.2-2.2,2.4v0.8h6.4c3.1,0,5.7-0.7,7.6-2c1.9-1.5,3.1-3.6,3.1-6.5
			c0-2.3-1-4-2.2-5.2c-1.6-1.5-4-2.1-7.1-2.1H114.3z M119.5,12.3c0-0.7,0-1.1,0.3-1.4c0.2-0.2,0.7-0.4,1.6-0.4
			c1.8,0,3.1,0.5,4.2,1.5c1.2,1.1,1.9,2.9,1.9,5.2c0,4.2-2.3,7-5.8,7c-1.8,0-2.2-0.6-2.2-2.4V12.3z"/>
		<g>
			<g>
				<path class="st14" d="M12.2,31.2c-1,0-1.5,0.3-1.5,1c0,0.5-0.1,1.2-0.1,2.7v1.4c0,2-0.3,3.5-1.4,4.6c-0.8,0.8-2,1.2-3.2,1.2
					c-1.1,0-2.1-0.2-2.9-0.8c-1.1-0.8-1.6-2.1-1.6-4.2V33c0-1.6-0.1-1.7-1.5-1.8v-0.5h4.7v0.5c-1.4,0.1-1.5,0.2-1.5,1.8v3.8
					c0,2.9,1.2,4.4,3.3,4.4c2.5,0,3.3-2,3.3-4.9V35c0-1.5,0-2.2-0.1-2.8c-0.1-0.7-0.5-0.9-1.7-1v-0.6h4.2L12.2,31.2L12.2,31.2z"/>
				<path class="st14" d="M17.2,41.9v-0.4c1-0.1,1.1-0.3,1.1-1.5v-2.8c0-1.2-0.5-1.9-1.5-1.9c-0.7,0-1.3,0.4-1.8,0.8v4
					c0,1.2,0.1,1.2,1.1,1.4v0.4h-3.9v-0.4c1.1-0.1,1.2-0.2,1.2-1.4v-3.5c0-1.1-0.1-1.2-1-1.4v-0.4c0.8-0.1,1.7-0.4,2.5-0.7v1.4
					c0.4-0.3,0.7-0.5,1.2-0.8c0.5-0.3,0.9-0.5,1.5-0.5c1.4,0,2.2,1,2.2,2.7v3.2c0,1.2,0.1,1.2,1.1,1.4v0.4L17.2,41.9L17.2,41.9z"/>
				<path class="st14" d="M21.8,41.9v-0.4c1.1-0.1,1.2-0.2,1.2-1.4v-3.5c0-1.1,0-1.2-1.1-1.4v-0.4c0.9-0.1,1.8-0.4,2.6-0.7v5.9
					c0,1.2,0.1,1.3,1.2,1.4v0.4H21.8z M22.7,31.8c0-0.6,0.4-1,1-1c0.5,0,0.9,0.4,0.9,1c0,0.5-0.4,0.9-0.9,0.9
					C23.2,32.8,22.7,32.3,22.7,31.8z"/>
				<path class="st14" d="M34.4,34.9c-0.9,0.1-1.1,0.3-1.5,1.3c-0.6,1.3-1.5,3.4-2.5,5.9h-0.5c-0.8-2.1-1.6-4-2.5-6
					c-0.4-0.9-0.6-1.1-1.5-1.2v-0.4h3.7v0.4c-0.9,0.1-1,0.3-0.7,1c0.4,1.1,1.1,3,1.6,4.1c0.6-1.3,1.1-2.9,1.5-4
					c0.3-0.8,0.2-1-0.8-1.1v-0.4h3.1L34.4,34.9L34.4,34.9z"/>
				<path class="st14" d="M41.2,40.4c-1.1,1.4-2.4,1.7-2.9,1.7c-2.2,0-3.4-1.7-3.4-3.6c0-1.1,0.4-2.2,1.1-2.9
					c0.7-0.8,1.7-1.3,2.6-1.3l0,0c1.5,0,2.6,1.3,2.6,2.6c0,0.4-0.1,0.5-0.4,0.6c-0.3,0-2.5,0.2-4.5,0.3c0,2.2,1.3,3.2,2.5,3.2
					c0.7,0,1.4-0.3,2-0.9L41.2,40.4z M38.1,34.9c-0.7,0-1.5,0.7-1.8,2.1c0.9,0,1.8,0,2.8,0c0.3,0,0.4-0.1,0.4-0.4
					C39.6,35.7,39.1,34.9,38.1,34.9L38.1,34.9z"/>
				<path class="st14" d="M45,36c0.6-0.9,1.3-1.8,2.1-1.8c0.6,0,1.1,0.4,1.1,0.9c0,0.4-0.2,0.7-0.6,0.9c-0.2,0.1-0.4,0-0.5,0
					c-0.3-0.3-0.5-0.4-0.7-0.4c-0.4,0-1,0.5-1.3,1.4v3.1c0,1.1,0.1,1.2,1.5,1.4v0.4h-4.1v-0.4c1.1-0.1,1.2-0.2,1.2-1.4v-3.6
					c0-1.1-0.1-1.2-1.1-1.3v-0.4c0.9-0.1,1.7-0.4,2.5-0.7L45,36L45,36z"/>
				<path class="st14" d="M53.7,36.5c-0.4-1-0.9-1.7-1.8-1.7c-0.6,0-1.1,0.5-1.1,1.1c0,0.7,0.7,1.1,1.5,1.4c1.3,0.5,2.2,1.1,2.2,2.4
					c0,1.6-1.5,2.4-2.9,2.4c-0.9,0-1.7-0.3-2-0.6c-0.1-0.2-0.3-1.5-0.3-2.1l0.5-0.1c0.3,1.1,1.1,2.2,2.2,2.2c0.6,0,1.2-0.5,1.2-1.2
					s-0.4-1.1-1.3-1.5c-1-0.4-2.2-1.1-2.2-2.4c0-1.2,1.1-2.3,2.7-2.3c0.7,0,1.2,0.1,1.6,0.3c0.1,0.4,0.4,1.5,0.4,1.8L53.7,36.5z"/>
				<path class="st14" d="M55.2,41.9v-0.4c1.1-0.1,1.2-0.2,1.2-1.4v-3.5c0-1.1,0-1.2-1.1-1.4v-0.4c0.9-0.1,1.8-0.4,2.6-0.7v5.9
					c0,1.2,0.1,1.3,1.2,1.4v0.4H55.2z M56.1,31.8c0-0.6,0.4-1,1-1c0.5,0,0.9,0.4,0.9,1c0,0.5-0.4,0.9-0.9,0.9
					C56.6,32.8,56.1,32.3,56.1,31.8z"/>
				<path class="st14" d="M63.5,41.9c-0.3,0.2-0.6,0.2-0.7,0.2c-1.1,0-1.8-0.7-1.8-2.1v-5h-1.2l-0.1-0.2l0.5-0.5H61v-1.2l1.3-1.2
					l0.2,0v2.4h1.9c0.2,0.2,0.1,0.6-0.1,0.7h-1.8v4.4c0,1.4,0.6,1.6,1,1.6c0.4,0,0.8-0.2,1.1-0.3l0.1,0.5L63.5,41.9z"/>
				<path class="st14" d="M73.2,34.9c-0.9,0.1-1.1,0.3-1.5,1.3c-0.4,0.9-1,2.3-2.2,5.1c-1.2,2.8-1.5,3.7-1.8,4.7
					c-0.1,0.4-0.3,0.4-0.5,0.4c-0.5,0-1.1-0.4-1.1-0.9c0-0.3,0.1-0.4,0.4-0.6c0.6-0.4,0.9-0.7,1.4-1.5c0.3-0.6,0.4-0.9,0.5-1.1
					c0.1-0.3,0.1-0.5,0-0.8c-0.7-2-1.5-4.2-2-5.3c-0.4-0.9-0.6-1.1-1.5-1.3v-0.4h3.6l0,0.4c-0.8,0.1-0.9,0.3-0.7,0.9l1.6,4.2
					c0.5-1.1,1.2-3.1,1.5-4.2c0.2-0.6,0.1-0.8-0.9-1v-0.4h3.2V34.9z"/>
				<path class="st14" d="M89.4,38.9c-0.2,0.8-0.7,2.2-1,2.7c-0.5,0.1-2.1,0.5-3.3,0.5c-4.5,0-6.5-3-6.5-5.7c0-3.6,2.9-6,6.9-6
					c1.5,0,2.8,0.4,3.3,0.5c0.1,1,0.3,1.7,0.4,2.7l-0.5,0.1C88.1,31.8,86.9,31,85,31c-3,0-4.6,2.4-4.6,5c0,3.3,2,5.4,4.7,5.4
					c1.8,0,2.8-1,3.7-2.8L89.4,38.9z"/>
				<path class="st14" d="M94.6,34.2c2.2,0,3.9,1.7,3.9,3.8c0,2.8-2.1,4.1-3.9,4.1c-2.5,0-3.9-1.9-3.9-3.8
					C90.7,35.5,93,34.2,94.6,34.2L94.6,34.2z M94.4,34.8c-1,0-1.9,1-1.9,3c0,2.2,0.9,3.8,2.3,3.8c1,0,1.9-0.7,1.9-3.1
					C96.7,36.4,95.9,34.8,94.4,34.8L94.4,34.8z"/>
				<path class="st14" d="M99.2,41.9v-0.4c1.1-0.1,1.2-0.2,1.2-1.4V32c0-1.2-0.1-1.2-1.2-1.3v-0.4c0.9-0.1,2.1-0.4,2.7-0.6V40
					c0,1.2,0.1,1.3,1.3,1.4v0.4L99.2,41.9L99.2,41.9z"/>
				<path class="st14" d="M103.9,41.9v-0.4c1.1-0.1,1.2-0.2,1.2-1.4V32c0-1.2-0.1-1.2-1.2-1.3v-0.4c0.9-0.1,2.1-0.4,2.7-0.6V40
					c0,1.2,0.1,1.3,1.3,1.4v0.4L103.9,41.9L103.9,41.9z"/>
				<path class="st14" d="M115.4,40.4c-1.1,1.4-2.4,1.7-2.9,1.7c-2.2,0-3.4-1.7-3.4-3.6c0-1.1,0.4-2.2,1.1-2.9
					c0.7-0.8,1.7-1.3,2.6-1.3l0,0c1.5,0,2.6,1.3,2.6,2.6c0,0.4-0.1,0.5-0.4,0.6c-0.3,0-2.5,0.2-4.5,0.3c0,2.2,1.3,3.2,2.5,3.2
					c0.7,0,1.4-0.3,2-0.9L115.4,40.4z M112.4,34.9c-0.7,0-1.5,0.7-1.8,2.1c0.9,0,1.8,0,2.8,0c0.3,0,0.4-0.1,0.4-0.4
					C113.9,35.7,113.4,34.9,112.4,34.9L112.4,34.9z"/>
				<path class="st14" d="M124.3,34.6c-0.1,0.3-0.5,0.7-0.8,0.9l-1,0c0.3,0.4,0.5,0.9,0.5,1.5c0,1.8-1.6,2.8-3.1,2.8
					c-0.3,0-0.6,0-0.9-0.1c-0.2,0.1-0.4,0.4-0.4,0.7c0,0.4,0.3,0.7,1.1,0.7c0.6,0,1.2,0,1.8,0c1.1,0,2.5,0.4,2.5,2.1
					c0,1.8-2.1,3.5-4.4,3.5c-2,0-3-1.1-3-2.1c0-0.4,0.2-0.7,0.4-1c0.4-0.4,1-0.8,1.4-1.1c-0.7-0.2-1.1-0.6-1.3-0.9
					c-0.2-0.3-0.2-0.6-0.2-0.7c0.7-0.3,1.3-0.7,1.5-1.1c-0.8-0.4-1.5-1.2-1.5-2.3c0-2,1.8-2.9,3.2-2.9h0c0.6,0,1.1,0.1,1.7,0.4
					c0.9,0,1.8-0.1,2.4-0.2L124.3,34.6z M120.2,42.2c-0.8,0-1.2,0.1-1.5,0.4c-0.4,0.4-0.7,0.8-0.7,1.3c0,0.9,1,1.7,2.3,1.7
					c1.6,0,2.4-0.8,2.4-1.9c0-0.6-0.3-1.1-0.8-1.2C121.4,42.2,120.9,42.2,120.2,42.2L120.2,42.2z M119.9,34.7c-0.7,0-1.4,0.7-1.4,2
					c0,1.3,0.6,2.3,1.6,2.3c0.7,0,1.4-0.7,1.4-2C121.4,35.7,120.8,34.7,119.9,34.7L119.9,34.7z"/>
				<path class="st14" d="M131.1,40.4c-1.1,1.4-2.4,1.7-2.9,1.7c-2.2,0-3.4-1.7-3.4-3.6c0-1.1,0.4-2.2,1.1-2.9
					c0.7-0.8,1.7-1.3,2.6-1.3l0,0c1.5,0,2.6,1.3,2.6,2.6c0,0.4-0.1,0.5-0.4,0.6c-0.3,0-2.5,0.2-4.5,0.3c0,2.2,1.3,3.2,2.5,3.2
					c0.7,0,1.4-0.3,2-0.9L131.1,40.4z M128.1,34.9c-0.7,0-1.5,0.7-1.8,2.1c0.9,0,1.8,0,2.8,0c0.3,0,0.4-0.1,0.4-0.4
					C129.6,35.7,129,34.9,128.1,34.9L128.1,34.9z"/>
			</g>
		</g>
	</g>
</g>
<g>
	<path class="st15" d="M71.5,16.7h-5.3v0.8c3.9,0.1,0,6-0.5,9.5h-0.1c-1.3-3.3-2.6-6.7-3.8-10.1h-1.1c-1.1,3.5-2.2,6.9-3.3,10h-0.1
		c-0.8-2.5-4.9-15.8-5.7-18.4v10c1.6,5.1,3.3,10.7,4,13h1.2c1.1-3.3,2.3-6.6,3.5-10h0.1c1.3,3.4,2.5,6.7,3.7,10h1.2
		c3.3-8,1.9-12,6.2-14V16.7z M83.9,27.3c-0.7,2.9-3.4,3.4-5.9,2.7c-1-0.4-0.4-4.6-0.5-5.7c1.8,0.1,4.1-0.5,4.1,1.7h0.8v-4.5h-0.8
		c0,2.2-2.4,1.6-4.1,1.7c0.4-0.8-1-6.1,1-5.6c2.3-0.2,3.9,0.2,4.3,2.5l0.8-0.1c-0.1-1.5-0.2-3-0.2-3.4H72.6v0.8
		c3.5-0.7,1.3,9,1.9,10.7c0,1.9-0.2,2-2.2,2.2v0.8H84c0.2-0.7,0.6-2.7,0.8-3.7L83.9,27.3z M95,20.1c-0.2-1.4-0.4-2.4-0.4-3.2
		c-2.7-1.4-8.8-0.1-8.3,3.8c-0.6,3.7,6.5,4.3,6.6,7.5c-0.5,4.9-6.1,1.2-6.2-1.6l-0.8,0.3c0.2,1.4,0.5,3.3,0.6,3.8
		c6.6,3.8,13.7-5.2,5.1-8.3c-7.1-3,1.2-8.5,2.6-2L95,20.1z M110.4,20.5c-0.1-1.4-0.2-3.5-0.3-4.4h-0.5c-0.5,1.1-9.7,0.4-10.6,0.6
		c-0.6,0-1-0.1-1.3-0.6h-0.6c-0.1,1.1-0.2,2.8-0.3,4.5h0.8c0.7-2.8,1.1-3,4.4-2.9v10.5c0,1.9-0.2,2.1-2.1,2.2v0.8h7.4v-0.8
		c-2-0.2-2.2-0.3-2.2-2.2V17.6c2.8-0.1,3.9,0.1,4.4,2.9L110.4,20.5z M122.9,20.1c-0.1-1.3-0.2-3.1-0.2-3.5h-10.8v0.8
		c1.7,0.2,1.9,0.3,1.9,2.4c-0.6,1.9,1.6,11.2-1.9,10.6v0.8h7.2v-0.8c-3.4,0.5-1.9-3.8-2.2-5.9c1.7,0.1,4.5-0.5,4.4,1.7h0.8v-4.5
		h-0.8c0.1,2.1-2.7,1.6-4.4,1.7c0.4-0.7-0.9-6.2,0.9-5.7c2.4-0.2,4,0.2,4.4,2.6L122.9,20.1z M132.7,16.3c-11-0.2-10.5,15.4-0.3,15.3
		C142.5,32.2,143.1,16,132.7,16.3z M132.3,17.3c5.7-0.9,6.4,13.8,0.6,13.3C126.7,31,126.3,16.9,132.3,17.3z M156,30.7
		c-2-0.8-3.8-4.6-4.9-6.5c2.8-0.6,3.8-5.1,1.3-6.6c-1.7-1.4-8.1-0.6-10.4-0.8v0.8c3.5-0.6,1.3,9,1.9,10.7c0,1.8-0.3,2-2,2.2v0.8h6.8
		v-0.8c-3,0.3-1.7-3.6-1.9-5.4c4.3,0.7,2.6,7.3,9.1,6.5L156,30.7z M146.8,24.1c0.1-0.6-0.2-6,0.2-6.3
		C151.6,15.8,152.3,25.3,146.8,24.1z M157,16.7v0.8c3.5-0.6,1.3,9,1.9,10.7c0,1.9-0.2,2-2,2.2v0.8c8.4,1.3,21-2.6,13.7-12.7
		C168.1,15.9,160.7,16.8,157,16.7z M161.9,19.2c1.2-4.5,8.3,0.5,7.4,4.6c0.9,4.6-6.6,9.5-7.4,4.2V19.2z"/>
	<path class="st16" d="M60.3,38v0.1c-1.2,2.2,1.2,7.4-3.3,7.2c-4.5,0.2-2.1-5-3.3-7.2V38H56v0.1c-0.5,0.9-1.1,6.6,1,6.2
		c2,0.3,1.4-5.4,0.9-6.2V38H60.3z"/>
	<path class="st16" d="M70.4,38v0.1c-0.5,0.1-0.2,6.7-0.3,7.1h-0.5L65,40.6c0.1,0.5-0.3,4.4,0.3,4.6v0.1h-1.5v-0.1
		c0.4-0.8,0.5-6.4-0.1-7v-0.1H65l4.1,4.1c-0.1-0.4,0.2-3.8-0.3-4v-0.1L70.4,38L70.4,38z"/>
	<path class="st16" d="M75.6,39c0.1,0.6-0.3,5.8,0.4,6.1v0.1h-2.4v-0.1c0.6-0.8,0.6-6.2,0-7V38H76v0.1C75.9,38.2,75.6,38.5,75.6,39"
		/>
	<path class="st16" d="M83.2,41.4c0.1,0.1-0.3,0.8-0.3,0.9h-3.6c-0.1-0.1,0.3-0.8,0.3-0.9H83.2z"/>
	<path class="st16" d="M90.6,45.3c-5.4,0.3-5.3-7.4-0.4-7.5C95.6,37.5,95.5,45.3,90.6,45.3 M92.4,41.3c-0.3-3.6-4.9-2.9-4,0.6
		C88.7,45.6,93.3,44.8,92.4,41.3"/>
	<path class="st16" d="M104.2,38v0.1c-0.5,0.1-0.2,6.7-0.3,7.1h-0.5l-4.6-4.6c0.1,0.5-0.3,4.4,0.3,4.6v0.1h-1.5v-0.1
		c0.4-0.8,0.5-6.4-0.1-7v-0.1h1.4l4.1,4.1c-0.1-0.4,0.2-3.8-0.3-4v-0.1L104.2,38L104.2,38z"/>
	<path class="st16" d="M112.6,43.7l-0.4,1.7H112c-0.2-0.2-4.2-0.1-4.5-0.1v-0.1c0.6-0.8,0.6-6.2,0-7v-0.1h2.4v0.1
		c-0.7,0.3-0.2,5.4-0.4,6c0.6-0.1,2.8,0.2,2.9-0.5L112.6,43.7z"/>
	<path class="st16" d="M117.6,39c0.1,0.6-0.3,5.8,0.4,6.1v0.1h-2.4v-0.1c0.6-0.8,0.6-6.2,0-7V38h2.4v0.1
		C117.9,38.2,117.6,38.5,117.6,39"/>
	<path class="st16" d="M128,38v0.1c-0.5,0.1-0.2,6.7-0.3,7.1h-0.5l-4.6-4.6c0.1,0.5-0.3,4.4,0.3,4.6v0.1h-1.5v-0.1
		c0.4-0.8,0.5-6.4-0.1-7v-0.1h1.4l4.1,4.1c-0.1-0.4,0.2-3.8-0.3-4v-0.1L128,38L128,38z"/>
	<path class="st16" d="M136.4,43.7l-0.4,1.7h-0.1c-0.1-0.2-4.4-0.1-4.6-0.1v-0.1c0.6-0.8,0.6-6.2,0-7v-0.1c0.6-0.1,3.8,0.1,4.3-0.1
		h0.1v1.7h-0.1c0.1-0.7-1.8-0.5-2.2-0.5v1.7c0.2-0.1,1.8,0.2,1.9-0.2h0.1v1.3h-0.1c-0.1-0.3-1.7-0.1-1.9-0.2v2.4
		c0.6-0.1,2.9,0.2,3-0.5L136.4,43.7z"/>
	<path class="st17" d="M24.6,15.6v14c-6.6-1.9-12.2-2.8-14.2-3.2l2.4-4.2L24,15.9L24.6,15.6z"/>
	<path class="st18" d="M44,35.7c-10.4-3.9-12-3.4-19.3-6v-14l4.4-2C33.3,14.1,41.8,32.7,44,35.7z"/>
	<path class="st15" d="M24.6,1.7v10.1c-2.1-0.6-4-0.7-5.3-0.8"/>
	<path class="st19" d="M33,16.3c-1.2-1.1-2.5-2-4-2.8l1.9-0.9L33,16.3z"/>
	<path class="st20" d="M30.9,12.7L29,13.6c-1.4-0.7-2.9-1.3-4.4-1.8V1.6L30.9,12.7z"/>
	<path class="st16" d="M24.6,11.9v3.8l-10.7,5l5.4-9.6C20.6,11,22.5,11.3,24.6,11.9"/>
	<path class="st21" d="M29,13.6l-4.4,2v-3.8C26.1,12.3,27.6,12.9,29,13.6"/>
	<path class="st22" d="M24.6,30.7v-1c-6.6-1.9-12.2-2.8-14.2-3.2L0,44.9L24.6,30.7z"/>
	<path class="st19" d="M49.2,44.9H49L24.6,30.7v-1C33.4,32.6,45.6,35.2,49.2,44.9z"/>
	<polygon class="st15" points="0,44.9 49.2,44.9 24.6,30.6 	"/>
</g>
</svg>
